<svg xmlns="http://www.w3.org/2000/svg" viewBox="0 0 64 64"><defs><style>.cls-1{fill:none;}.cls-2{fill:#fff;}</style></defs><title>admin-night</title><g id="invisi-border"><rect class="cls-1" width="64" height="64"/></g><g id="icon"><path class="cls-2" d="M55,57H9a2,2,0,0,1-2-2V9A2,2,0,0,1,9,7H55a2,2,0,0,1,2,2V55A2,2,0,0,1,55,57ZM11,53H53V11H11Z"/><path class="cls-2" d="M47,22H41a2,2,0,0,1,0-4h6a2,2,0,0,1,0,4Z"/><path class="cls-2" d="M33,22H17a2,2,0,0,1,0-4H33a2,2,0,0,1,0,4Z"/><path class="cls-2" d="M22,34H17a2,2,0,0,1,0-4h5a2,2,0,0,1,0,4Z"/><path class="cls-2" d="M47,34.08H30a2,2,0,0,1,0-4H47a2,2,0,1,1,0,4Z"/><path class="cls-2" d="M39,46H17a2,2,0,0,1,0-4H39a2,2,0,0,1,0,4Z"/><path class="cls-2" d="M43,50a6,6,0,1,1,6-6A6,6,0,0,1,43,50Zm0-8a2,2,0,1,0,2,2A2,2,0,0,0,43,42Z"/><path class="cls-2" d="M26,38a6,6,0,1,1,6-6A6,6,0,0,1,26,38Zm0-8a2,2,0,1,0,2,2A2,2,0,0,0,26,30Z"/><path class="cls-2" d="M37,26a6,6,0,1,1,6-6A6,6,0,0,1,37,26Zm0-8a2,2,0,1,0,2,2A2,2,0,0,0,37,18Z"/></g></svg>