<svg xmlns="http://www.w3.org/2000/svg" viewBox="0 0 64 64"><defs><style>.cls-1{fill:none;}.cls-2{fill:#032e61;}.cls-3{fill:#fff;}</style></defs><title>admin-day3</title><g id="invisi-border"><rect class="cls-1" width="64" height="64"/></g><g id="icon"><circle class="cls-2" cx="32" cy="32" r="28"/><path class="cls-3" d="M44.58,18.33H19.42a1.09,1.09,0,0,0-1.09,1.09V44.58a1.09,1.09,0,0,0,1.09,1.09H44.58a1.09,1.09,0,0,0,1.09-1.09V19.42A1.09,1.09,0,0,0,44.58,18.33ZM43.48,43.48h-23v-23h23Z"/><path class="cls-3" d="M23.8,26.53h7.86a3.26,3.26,0,0,0,6.16,0H40.2a1.09,1.09,0,0,0,0-2.19H37.81a3.26,3.26,0,0,0-6.16,0H23.8a1.09,1.09,0,0,0,0,2.19Zm10.94-2.19a1.09,1.09,0,1,1-1.09,1.09A1.09,1.09,0,0,1,34.73,24.34Z"/><path class="cls-3" d="M23.8,33.09h1.84a3.26,3.26,0,0,0,6.15,0H40.2a1.09,1.09,0,0,0,0-2.19H31.81a3.26,3.26,0,0,0-6.17,0H23.8a1.09,1.09,0,0,0,0,2.19Zm4.92-2.19A1.09,1.09,0,1,1,27.63,32,1.09,1.09,0,0,1,28.72,30.91Z"/><path class="cls-3" d="M23.8,39.66H34.94a3.28,3.28,0,1,0,0-2.19H23.8a1.09,1.09,0,0,0,0,2.19ZM38,37.47a1.09,1.09,0,1,1-1.09,1.09A1.09,1.09,0,0,1,38,37.47Z"/></g></svg>