<svg xmlns="http://www.w3.org/2000/svg" viewBox="0 0 64 64"><defs><style>.cls-1{fill:none;}.cls-2{fill:#032e61;}</style></defs><title>analytics-day2</title><g id="invisi-border"><rect class="cls-1" width="64" height="64"/></g><g id="icon"><path class="cls-2" d="M56,57H8a2,2,0,0,1,0-4H56a2,2,0,0,1,0,4Z"/><path class="cls-2" d="M26,57a2,2,0,0,1-2-2V41H16V55a2,2,0,0,1-4,0V39a2,2,0,0,1,2-2H26a2,2,0,0,1,2,2V55A2,2,0,0,1,26,57Z"/><path class="cls-2" d="M38,57a2,2,0,0,1-2-2V26H28V55a2,2,0,0,1-4,0V24a2,2,0,0,1,2-2H38a2,2,0,0,1,2,2V55A2,2,0,0,1,38,57Z"/><path class="cls-2" d="M50,57a2,2,0,0,1-2-2V11H40V55a2,2,0,0,1-4,0V9a2,2,0,0,1,2-2H50a2,2,0,0,1,2,2V55A2,2,0,0,1,50,57Z"/></g></svg>