<svg xmlns="http://www.w3.org/2000/svg" viewBox="0 0 64 64"><defs><style>.cls-1{fill:none;}.cls-2{fill:#032e61;}.cls-3{fill:#fff;}</style></defs><title>analytics-day3</title><g id="invisi-border"><rect class="cls-1" width="64" height="64"/></g><g id="icon"><circle class="cls-2" cx="32" cy="32" r="28"/><path class="cls-3" d="M45.13,43.48H42.94V19.42a1.09,1.09,0,0,0-1.09-1.09H35.28a1.09,1.09,0,0,0-1.09,1.09v7.11H28.72a1.09,1.09,0,0,0-1.09,1.09v7.11H22.16a1.09,1.09,0,0,0-1.09,1.09v7.66H18.88a1.09,1.09,0,0,0,0,2.19H45.13a1.09,1.09,0,0,0,0-2.19Zm-8.75-23h4.38v23H36.38v-23Zm-6.56,8.2h4.38V43.48H29.81V28.72Zm-6.56,8.2h4.38v6.56H23.25Z"/></g></svg>