<svg xmlns="http://www.w3.org/2000/svg" viewBox="0 0 64 64"><defs><style>.cls-1{fill:none;}.cls-2{fill:#032e61;}</style></defs><title>authenticator-day2</title><g id="invisi-border"><rect class="cls-1" width="64" height="64"/></g><g id="icon"><path class="cls-2" d="M51,60H13a2,2,0,0,1-2-2V25a2,2,0,0,1,2-2H51a2,2,0,0,1,2,2V58A2,2,0,0,1,51,60ZM15,56H49V27H15Z"/><path class="cls-2" d="M43,27a2,2,0,0,1-2-2V17a9,9,0,0,0-18,0v8a2,2,0,0,1-4,0V17a13,13,0,0,1,26,0v8A2,2,0,0,1,43,27Z"/><path class="cls-2" d="M29,49a2,2,0,0,1-1.41-.59l-5-5a2,2,0,0,1,2.83-2.83L29,44.17l9.59-9.59a2,2,0,0,1,2.83,2.83l-11,11A2,2,0,0,1,29,49Z"/></g></svg>