<svg xmlns="http://www.w3.org/2000/svg" viewBox="0 0 64 64"><defs><style>.cls-1{fill:none;}.cls-2{fill:#032e61;}.cls-3{fill:#fff;}</style></defs><title>authenticator-day3</title><g id="invisi-border"><rect class="cls-1" width="64" height="64"/></g><g id="icon"><circle class="cls-2" cx="32" cy="32" r="28"/><path class="cls-3" d="M42.39,25.33H39.11V22a7.11,7.11,0,0,0-14.22,0v3.28H21.61a1.09,1.09,0,0,0-1.09,1.09v18a1.09,1.09,0,0,0,1.09,1.09H42.39a1.09,1.09,0,0,0,1.09-1.09v-18A1.09,1.09,0,0,0,42.39,25.33ZM27.08,22a4.92,4.92,0,0,1,9.84,0v3.28H27.08ZM41.3,43.38H22.7V27.52H41.3Z"/><path class="cls-3" d="M35.6,31.66l-5.24,5.24-2-2a1.09,1.09,0,0,0-1.55,1.55l2.73,2.73a1.1,1.1,0,0,0,1.55,0l6-6a1.09,1.09,0,0,0-1.55-1.55Z"/></g></svg>