<svg xmlns="http://www.w3.org/2000/svg" viewBox="0 0 64 64"><defs><style>.cls-1{fill:none;}.cls-2{fill:#9f63c6;}.cls-3{fill:#4b2048;}.cls-4{fill:#fff;}</style></defs><title>automotive-day</title><g id="invisi-border"><rect class="cls-1" width="64" height="64"/></g><g id="icon"><path class="cls-2" d="M22,58C13.16,58,6,46.36,6,32S13.16,6,22,6H42c8.84,0,16,11.64,16,26S50.84,58,42,58Z"/><path class="cls-3" d="M42,60H22C11.91,60,4,47.7,4,32S11.91,4,22,4H42C52.09,4,60,16.3,60,32S52.09,60,42,60ZM22,8C14.41,8,8,19,8,32s6.41,24,14,24H42c7.59,0,14-11,14-24S49.59,8,42,8Z"/><ellipse class="cls-4" cx="22" cy="32" rx="6" ry="10"/><path class="cls-3" d="M22,44c-4.49,0-8-5.27-8-12s3.51-12,8-12,8,5.27,8,12S26.49,44,22,44Zm0-20c-1.89,0-4,3.42-4,8s2.11,8,4,8,4-3.42,4-8S23.89,24,22,24Z"/><path class="cls-3" d="M49,41a2,2,0,0,1-.83-.18l-11-5a2,2,0,1,1,1.66-3.64l10.08,4.58L57,32.25A2,2,0,1,1,59,35.75l-9,5A2,2,0,0,1,49,41Z"/><path class="cls-3" d="M49,29a2,2,0,0,1-.68-.12l-11-4a2,2,0,0,1,1.37-3.76L48.81,24.8,55,21.26a2,2,0,0,1,2,3.47l-7,4A2,2,0,0,1,49,29Z"/><path class="cls-3" d="M46,17a2,2,0,0,1-.55-.08l-14-4a2,2,0,1,1,1.1-3.85L45.8,12.86l5.3-2.65a2,2,0,1,1,1.79,3.58l-6,3A2,2,0,0,1,46,17Z"/><path class="cls-3" d="M46,52a2,2,0,0,1-.74-.14l-10-4a2,2,0,0,1,1.49-3.71l9.32,3.73,8.31-2.77a2,2,0,1,1,1.26,3.79l-9,3A2,2,0,0,1,46,52Z"/><path class="cls-3" d="M22,60C11.91,60,4,47.7,4,32S11.91,4,22,4,40,16.3,40,32,32.09,60,22,60ZM22,8C14.41,8,8,19,8,32s6.41,24,14,24S36,45,36,32,29.59,8,22,8Z"/><path class="cls-3" d="M42,60H22C11.91,60,4,47.7,4,32S11.91,4,22,4H42C52.09,4,60,16.3,60,32S52.09,60,42,60ZM22,8C14.41,8,8,19,8,32s6.41,24,14,24H42c7.59,0,14-11,14-24S49.59,8,42,8Z"/></g></svg>