<svg xmlns="http://www.w3.org/2000/svg" viewBox="0 0 64 64"><defs><style>.cls-1{fill:none;}.cls-2{fill:#4c2248;}.cls-3{fill:#fff;}</style></defs><title>automotive-day3</title><g id="invisi-border"><rect class="cls-1" width="64" height="64"/></g><g id="icon"><circle class="cls-2" cx="32" cy="32" r="28"/><path class="cls-3" d="M30.91,32c0-3.68-1.92-6.56-4.37-6.56S22.16,28.32,22.16,32s1.92,6.56,4.38,6.56S30.91,35.68,30.91,32Zm-6.56,0c0-2.5,1.16-4.37,2.19-4.37S28.72,29.5,28.72,32s-1.16,4.38-2.19,4.38S24.34,34.5,24.34,32Z"/><path class="cls-3" d="M47.28,32.91c0-.3,0-.6,0-.91,0-8.59-4.32-15.31-9.84-15.31H26.53c-5.52,0-9.84,6.73-9.84,15.31S21,47.31,26.53,47.31H37.47c5.22,0,9.36-6,9.8-13.91A1.09,1.09,0,0,0,47.28,32.91Zm-3.5,6.41-4.09,1.36-4.36-1.74a21.72,21.72,0,0,0,.88-4.22l4.63,2.1a1.09,1.09,0,0,0,1,0l3.06-1.7A18.76,18.76,0,0,1,43.78,39.32Zm.54-13-3.13,1.79-5.54-2h0a18.2,18.2,0,0,0-1.44-3.77l5.17,1.48a1.1,1.1,0,0,0,.79-.07l2.49-1.25A15.34,15.34,0,0,1,44.32,26.28Zm.8,5.72c0,.15,0,.3,0,.46L41.25,34.6l-4.88-2.22c0-.13,0-.25,0-.38a24.34,24.34,0,0,0-.25-3.45l4.8,1.74a1.08,1.08,0,0,0,.37.07,1.09,1.09,0,0,0,.54-.14l3-1.71A21.14,21.14,0,0,1,45.13,32ZM37.47,18.88a5.41,5.41,0,0,1,3.8,1.8l-1.72.86L32.3,19.46h-.06c-.19-.21-.39-.4-.59-.58ZM18.88,32c0-7.11,3.51-13.12,7.66-13.12s7.66,6,7.66,13.13-3.51,13.13-7.66,13.13S18.88,39.11,18.88,32ZM37.47,45.13H31.65A13.11,13.11,0,0,0,34.54,41l4.71,1.88a1.09,1.09,0,0,0,.75,0l2.27-.76C41,44,39.27,45.13,37.47,45.13Z"/></g></svg>