<svg xmlns="http://www.w3.org/2000/svg" viewBox="0 0 32 32"><defs><style>.cls-1{fill:none;}.cls-2{fill:#fff;}.cls-3{fill:#59575c;}</style></defs><title>social-icon-blog-day</title><g id="transparent_border" data-name="transparent border"><rect class="cls-1" width="32" height="32"/></g><g id="icon-bg"><rect class="cls-2" x="3.4" y="3.4" width="25.2" height="25.2" rx="3.6"/></g><g id="icons"><path class="cls-3" d="M26,2H6A4,4,0,0,0,2,6V26a4,4,0,0,0,4,4H26a4,4,0,0,0,4-4V6A4,4,0,0,0,26,2ZM10.34,24.33a2.6,2.6,0,1,1,2.59-2.6A2.69,2.69,0,0,1,10.34,24.33Zm5.73-2.73v.13a5.82,5.82,0,0,0-5.87-5.86V12.6a9,9,0,0,1,9,9Zm6.54.13A12.22,12.22,0,0,0,10.34,9.46V6.32A15.4,15.4,0,0,1,25.75,21.73Z"/></g></svg>