<svg height="29" viewBox="0 0 28 29" width="28" xmlns="http://www.w3.org/2000/svg"><path d="m42.2114709 37.184271-3.2922881-2.7535767c-.7577984-.6183262-1.8401447-.6744885-2.5885811-.0561624l-2.8054664 2.1352505c-.3245478.2808119-.8118897.2246495-1.1364375-.1123248l-4.2123605-3.942707-3.7796301-4.3833656c-.3245478-.3369743-.3245478-.7868134-.1081826-1.17995l2.047668-2.9220638c.5955245-.7868133.5414332-1.9106009-.0540913-2.6974142l-2.6426723-3.446426c-.8118898-1.0114629-2.2640333-1.1237876-3.1841056-.1684871l-2.8054664 2.9312441c-.4238886.449299-.6584576 1.0584448-.649857 1.6859514.2706977 5.7409832 2.7516163 11.2011545 6.4225436 15.0223563 3.6714474 3.8303823 8.903221 6.4154718 14.4142929 6.6962837.5955245.0561623 1.1905289-.2246496 1.6144175-.6744886l2.8054664-2.9312442c.8389354-.6836689.9923674-1.9478625.3339098-2.8189194-.1081826-.1404059-.234569-.2716315-.3786392-.3839562z" fill="#fff" transform="translate(-17 -17)"/></svg>