<svg xmlns="http://www.w3.org/2000/svg" viewBox="0 0 64 64"><defs><style>.cls-1{fill:none;}.cls-2{fill:#fff;}</style></defs><g id="invisi-border"><rect class="cls-1" width="64" height="64"/></g><g id="icon"><path class="cls-2" d="M52.1,22.34a10.37,10.37,0,1,0-13.24,0,13.68,13.68,0,0,0-1.35.89,10.29,10.29,0,0,0-11,0,13.68,13.68,0,0,0-1.35-.89,10.37,10.37,0,1,0-13.24,0A13.49,13.49,0,0,0,5,34.07V40.3a2.07,2.07,0,0,0,2.07,2.07H22.29a13.44,13.44,0,0,0-3.77,9.33v6.23A2.07,2.07,0,0,0,20.59,60H43.41a2.07,2.07,0,0,0,2.07-2.07V51.7a13.44,13.44,0,0,0-3.77-9.33H56.89A2.07,2.07,0,0,0,59,40.3V34.07A13.49,13.49,0,0,0,52.1,22.34ZM41.33,51.7v4.15H22.67V51.7a9.33,9.33,0,1,1,18.66,0ZM9.19,34.07a9.31,9.31,0,0,1,14.25-7.91,10.31,10.31,0,0,0,.28,12.06H9.19Zm3.11-19.7a6.22,6.22,0,1,1,6.22,6.22A6.23,6.23,0,0,1,12.3,14.37ZM32,25.78a6.16,6.16,0,0,1,4.22,1.66,6.26,6.26,0,0,1,2,4.56,6.18,6.18,0,0,1-2.07,4.62,6.25,6.25,0,0,1-2.08,1.24,6.13,6.13,0,0,1-4.14,0,6.25,6.25,0,0,1-2.08-1.24,6.17,6.17,0,0,1-1.39-7.43,6.12,6.12,0,0,1,1.32-1.75A6.16,6.16,0,0,1,32,25.78ZM54.81,38.22H40.28a10.31,10.31,0,0,0,.28-12.06,9.31,9.31,0,0,1,14.25,7.91ZM39.26,14.37a6.22,6.22,0,1,1,6.22,6.22A6.23,6.23,0,0,1,39.26,14.37Z"/></g></svg>