<svg xmlns="http://www.w3.org/2000/svg" viewBox="0 0 64 64"><defs><style>.cls-1{fill:none;}.cls-2{fill:#d3451d;}.cls-3{fill:#fff;}</style></defs><title>collaboration-day3</title><g id="invisi-border"><rect class="cls-1" width="64" height="64"/></g><g id="icon"><circle class="cls-2" cx="32" cy="32" r="28"/><path class="cls-3" d="M37.08594,35.11719H26.91406a1.09375,1.09375,0,0,0,0,2.1875H37.08594a1.09375,1.09375,0,0,0,0-2.1875Z"/><path class="cls-3" d="M26.91406,27.13281H37.08594a1.09375,1.09375,0,0,0,0-2.1875H26.91406a1.09375,1.09375,0,0,0,0,2.1875Z"/><path class="cls-3" d="M23.52344,30.03125a1.09375,1.09375,0,0,0,0,2.1875H40.47656a1.09375,1.09375,0,0,0,0-2.1875Z"/><path class="cls-3" d="M42.036,20.44385A14.65634,14.65634,0,1,0,32,45.78125H45.5625a1.09367,1.09367,0,0,0,1.09375-1.09375V31.125A14.7154,14.7154,0,0,0,42.036,20.44385Zm2.43274,23.1499H32A12.46913,12.46913,0,0,1,31.2019,18.681c.27-.01709.53748-.02563.80493-.02563A12.47048,12.47048,0,0,1,44.46875,31.125Z"/></g></svg>