<svg xmlns="http://www.w3.org/2000/svg" viewBox="0 0 64 64"><defs><style>.cls-1{fill:none;}.cls-2{fill:#fff;}.cls-3{fill:#ff784f;}.cls-4{fill:#d83a00;}</style></defs><g id="invisi-border"><rect class="cls-1" width="64" height="64"/></g><g id="icon"><path class="cls-2" d="M21.63,32a10.28,10.28,0,0,1,1.81-5.84A9.31,9.31,0,0,0,9.19,34.07v4.15H23.72A10.32,10.32,0,0,1,21.63,32Z"/><path class="cls-3" d="M45.48,24.74a9.28,9.28,0,0,0-4.92,1.42,10.31,10.31,0,0,1-.28,12.06H54.81V34.07A9.34,9.34,0,0,0,45.48,24.74Z"/><path class="cls-4" d="M52.1,22.34a10.37,10.37,0,1,0-13.24,0,13.68,13.68,0,0,0-1.35.89,10.29,10.29,0,0,0-11,0,13.68,13.68,0,0,0-1.35-.89,10.37,10.37,0,1,0-13.24,0A13.49,13.49,0,0,0,5,34.07V40.3a2.07,2.07,0,0,0,2.07,2.07H22.29a13.44,13.44,0,0,0-3.77,9.33v6.23A2.07,2.07,0,0,0,20.59,60H43.41a2.07,2.07,0,0,0,2.07-2.07V51.7a13.44,13.44,0,0,0-3.77-9.33H56.89A2.07,2.07,0,0,0,59,40.3V34.07A13.49,13.49,0,0,0,52.1,22.34Z"/><path class="cls-4" d="M41.33,51.7v4.15H22.67V51.7a9.33,9.33,0,1,1,18.66,0Z"/><path class="cls-2" d="M9.19,34.07a9.31,9.31,0,0,1,14.25-7.91,10.31,10.31,0,0,0,.28,12.06H9.19Z"/><circle class="cls-4" cx="18.52" cy="14.37" r="6.22"/><path class="cls-4" d="M32,25.78a6.16,6.16,0,0,1,4.22,1.66,6.26,6.26,0,0,1,2,4.56,6.18,6.18,0,0,1-2.07,4.62,6.25,6.25,0,0,1-2.08,1.24,6.13,6.13,0,0,1-4.14,0,6.25,6.25,0,0,1-2.08-1.24,6.17,6.17,0,0,1-1.39-7.43,6.12,6.12,0,0,1,1.32-1.75A6.16,6.16,0,0,1,32,25.78Z"/><path class="cls-3" d="M54.81,38.22H40.28a10.31,10.31,0,0,0,.28-12.06,9.31,9.31,0,0,1,14.25,7.91Z"/><circle class="cls-4" cx="45.48" cy="14.37" r="6.22"/><path class="cls-3" d="M22.67,51.7v4.15H41.33V51.7a9.33,9.33,0,1,0-18.66,0Z"/><path class="cls-3" d="M26.46,29.19a6.17,6.17,0,0,0,1.39,7.43,6.25,6.25,0,0,0,2.08,1.24,6.13,6.13,0,0,0,4.14,0,6.25,6.25,0,0,0,2.08-1.24,6.17,6.17,0,0,0,1.39-7.43,6.12,6.12,0,0,0-1.32-1.75,6.18,6.18,0,0,0-8.44,0A6.12,6.12,0,0,0,26.46,29.19Z"/><circle class="cls-3" cx="18.52" cy="14.37" r="6.22"/><circle class="cls-2" cx="45.48" cy="14.37" r="6.22"/></g></svg>