<svg xmlns="http://www.w3.org/2000/svg" viewBox="0 0 64 64"><defs><style>.cls-1{fill:none;}.cls-2{fill:#416537;}</style></defs><title>commerce-day2</title><g id="invisi-border"><rect class="cls-1" width="64" height="64"/></g><g id="icon"><path class="cls-2" d="M53.93,47h-33a2,2,0,0,1-2-1.6L12.37,13H8A2,2,0,0,1,8,9h6a2,2,0,0,1,2,1.6L22.56,43H53.93a2,2,0,0,1,0,4Z"/><path class="cls-2" d="M51.93,38h-32a2,2,0,0,1,0-4H50.31l3.21-15H15.93a2,2,0,0,1,0-4H56a2,2,0,0,1,2,2.42l-4.07,19A2,2,0,0,1,51.93,38Z"/><path class="cls-2" d="M21,55a6,6,0,1,1,6-6A6,6,0,0,1,21,55Zm0-8a2,2,0,1,0,2,2A2,2,0,0,0,21,47Z"/><path class="cls-2" d="M47,55a6,6,0,1,1,6-6A6,6,0,0,1,47,55Zm0-8a2,2,0,1,0,2,2A2,2,0,0,0,47,47Z"/></g></svg>