<svg xmlns="http://www.w3.org/2000/svg" viewBox="0 0 64 64"><defs><style>.cls-1{fill:none;}.cls-2{fill:#9f63c6;}.cls-3{fill:#fff;}.cls-4{fill:#4b2048;}</style></defs><title>communications-day</title><g id="invisi-border"><rect class="cls-1" width="64" height="64"/></g><g id="icon"><polygon class="cls-2" points="32 47 19 58 28 33 36 33 45 58 32 47"/><circle class="cls-3" cx="32" cy="19.86" r="4"/><path class="cls-4" d="M32,25.86a6,6,0,1,1,6-6A6,6,0,0,1,32,25.86Zm0-8a2,2,0,1,0,2,2A2,2,0,0,0,32,17.86Z"/><path class="cls-4" d="M23,30a2,2,0,0,1-1.48-.65,14.16,14.16,0,0,1,0-18.7,2,2,0,0,1,3,2.7,10.08,10.08,0,0,0,0,13.3A2,2,0,0,1,23,30Z"/><path class="cls-4" d="M41,30a2,2,0,0,1-1.48-3.35,10.08,10.08,0,0,0,0-13.3,2,2,0,0,1,3-2.7,14.16,14.16,0,0,1,0,18.7A2,2,0,0,1,41,30Z"/><path class="cls-4" d="M46,36a2,2,0,0,1-1.39-3.44,17.33,17.33,0,0,0,0-25.12,2,2,0,0,1,2.78-2.88,21.33,21.33,0,0,1,0,30.88A2,2,0,0,1,46,36Z"/><path class="cls-4" d="M18,36a2,2,0,0,1-1.39-.56,21.33,21.33,0,0,1,0-30.88,2,2,0,0,1,2.78,2.88,17.33,17.33,0,0,0,0,25.12A2,2,0,0,1,18,36Z"/><path class="cls-4" d="M45,60a2,2,0,0,1-1.29-.47L32,49.67,20.29,59.53a2,2,0,0,1-3.17-2.21l9-25A2,2,0,0,1,28,31h8a2,2,0,0,1,1.88,1.32l9,25A2,2,0,0,1,45,60ZM35.1,47.05l5.49,4.63L38,44.58ZM26,44.58l-2.56,7.1,5.49-4.63Zm1.44-4L32,44.44l4.6-3.87-2-5.57H29.41Z"/></g></svg>