<svg xmlns="http://www.w3.org/2000/svg" viewBox="0 0 64 64"><defs><style>.cls-1{fill:none;}.cls-2{fill:#416437;}.cls-3{fill:#fff;}</style></defs><title>commerce-day3</title><g id="invisi-border"><rect class="cls-1" width="64" height="64"/></g><g id="icon"><circle class="cls-2" cx="32" cy="32" r="28"/><path class="cls-3" d="M44,38H26.84l-.56-2.73H42.9A1.09,1.09,0,0,0,44,34.42L46.19,24a1.09,1.09,0,0,0-1.07-1.32H23.72l-.49-2.41a1.09,1.09,0,0,0-1.07-.87H18.88a1.09,1.09,0,0,0,0,2.19h2.39l3.4,16.69a3.28,3.28,0,1,0,4.6,3,3.24,3.24,0,0,0-.2-1.09h8.06a3.24,3.24,0,0,0-.2,1.09,3.28,3.28,0,1,0,6.56,0,3.24,3.24,0,0,0-.2-1.09H44A1.09,1.09,0,0,0,44,38Zm-.22-13.12L42,33.09H25.84l-1.67-8.2ZM27.08,41.3A1.09,1.09,0,1,1,26,40.2,1.09,1.09,0,0,1,27.08,41.3Zm14.22,0A1.09,1.09,0,1,1,40.2,40.2,1.09,1.09,0,0,1,41.3,41.3Z"/></g></svg>