<svg xmlns="http://www.w3.org/2000/svg" viewBox="0 0 64 64"><defs><style>.cls-1{fill:none;}.cls-2{fill:#4c2248;}.cls-3{fill:#fff;}</style></defs><title>communications-day3</title><g id="invisi-border"><rect class="cls-1" width="64" height="64"/></g><g id="icon"><circle class="cls-2" cx="32" cy="32" r="28"/><path class="cls-3" d="M32,28.64a3.28,3.28,0,1,0-3.28-3.28A3.29,3.29,0,0,0,32,28.64Zm0-4.37a1.09,1.09,0,1,1-1.09,1.09A1.09,1.09,0,0,1,32,24.27Z"/><path class="cls-3" d="M26.27,30.55a1.09,1.09,0,0,0,1.62-1.47,5.51,5.51,0,0,1,0-7.28,1.09,1.09,0,0,0-1.62-1.47A7.74,7.74,0,0,0,26.27,30.55Z"/><path class="cls-3" d="M36.19,30.62a1.09,1.09,0,0,0,1.54-.07,7.74,7.74,0,0,0,0-10.22,1.09,1.09,0,1,0-1.62,1.47,5.51,5.51,0,0,1,0,7.28A1.09,1.09,0,0,0,36.19,30.62Z"/><path class="cls-3" d="M40.42,17a1.09,1.09,0,0,0-1.52,1.57,9.48,9.48,0,0,1,0,13.74,1.09,1.09,0,0,0,1.52,1.57,11.67,11.67,0,0,0,0-16.88Z"/><path class="cls-3" d="M25.13,33.85a1.09,1.09,0,0,0,0-1.55,9.48,9.48,0,0,1,0-13.74A1.09,1.09,0,0,0,23.58,17a11.67,11.67,0,0,0,0,16.88,1.09,1.09,0,0,0,1.55,0Z"/><path class="cls-3" d="M35.22,32.18a1.09,1.09,0,0,0-1-.72H29.81a1.09,1.09,0,0,0-1,.72L23.86,45.85a1.09,1.09,0,0,0,1.73,1.21L32,41.66l6.41,5.39a1.09,1.09,0,0,0,1.73-1.21ZM27.3,42.76l1.4-3.88,1.61,1.35Zm2.19-6.08,1.1-3h2.84l1.1,3L32,38.8Zm4.21,3.55,1.61-1.35,1.4,3.88Z"/></g></svg>