<svg xmlns="http://www.w3.org/2000/svg" viewBox="0 0 64 64"><defs><style>.cls-1{fill:none;}.cls-2{fill:#0d9dda;}.cls-3{fill:#fff;}.cls-4{fill:#032d60;}</style></defs><g id="invisi-border"><rect class="cls-1" width="64" height="64"/></g><g id="icon"><path class="cls-2" d="M21.85,34.55a9,9,0,1,1,12.31,0A13.11,13.11,0,0,1,40,41V27.14A5.14,5.14,0,0,1,45.14,22H48V14H8V42h7.64A13.07,13.07,0,0,1,21.85,34.55Z"/><path class="cls-2" d="M17,21a2,2,0,0,0-2,2v2a2,2,0,0,1-4,0V23a6,6,0,0,1,6-6,2,2,0,0,1,0,4Z"/><path class="cls-3" d="M33,28a5,5,0,1,0-5,5A5,5,0,0,0,33,28Z"/><path class="cls-3" d="M28,37a9,9,0,0,0-8,5H36.06a9.08,9.08,0,0,0-1.7-2.36A8.94,8.94,0,0,0,28,37Z"/><path class="cls-2" d="M54.86,26H45.14A1.14,1.14,0,0,0,44,27.14V48.86A1.14,1.14,0,0,0,45.14,50h9.72A1.14,1.14,0,0,0,56,48.86V27.14A1.14,1.14,0,0,0,54.86,26Z"/><path class="cls-2" d="M50,48a2,2,0,0,1,0-4,2,2,0,0,1,1.72,1A2,2,0,0,1,50,48Z"/><path class="cls-4" d="M54.86,22H52V12a2,2,0,0,0-2-2H6a2,2,0,0,0-2,2V44a2,2,0,0,0,2,2H26v3H21a2,2,0,0,0,0,4H35a2,2,0,0,0,0-4H30V46H40v2.86A5.14,5.14,0,0,0,45.14,54h9.72A5.14,5.14,0,0,0,60,48.86V27.14A5.14,5.14,0,0,0,54.86,22Z"/><path class="cls-2" d="M56,48.86A1.14,1.14,0,0,1,54.86,50H45.14A1.14,1.14,0,0,1,44,48.86V27.14A1.14,1.14,0,0,1,45.14,26h9.72A1.14,1.14,0,0,1,56,27.14Z"/><path class="cls-2" d="M10,42H8V14H48v8H45.14A5.14,5.14,0,0,0,40,27.14V41a13.11,13.11,0,0,0-5.84-6.44,9,9,0,1,0-12.31,0A13.07,13.07,0,0,0,15.64,42Z"/><path class="cls-3" d="M23,28a5,5,0,1,1,5,5A5,5,0,0,1,23,28Z"/><path class="cls-3" d="M20,42a9,9,0,0,1,16.11,0Z"/><path class="cls-3" d="M50,44a2,2,0,1,0,1.72,1A2,2,0,0,0,50,44Z"/><path class="cls-3" d="M17,17a6,6,0,0,0-6,6v2a2,2,0,0,0,4,0V23a2,2,0,0,1,2-2,2,2,0,0,0,0-4Z"/></g></svg>