<svg xmlns="http://www.w3.org/2000/svg" viewBox="0 0 64 64"><defs><style>.cls-1{fill:none;}.cls-2{fill:#4c2248;}.cls-3{fill:#fff;}</style></defs><title>consumer-goods-day3</title><g id="invisi-border"><rect class="cls-1" width="64" height="64"/></g><g id="icon"><circle class="cls-2" cx="32" cy="32" r="28"/><path class="cls-3" d="M42.39,29.27H32.73a6.54,6.54,0,0,0-4.56-3.17V23.25h2.39a3.28,3.28,0,0,0,3.08,2.19,1.09,1.09,0,0,0,0-2.19,1.09,1.09,0,0,1-1.09-1.09V21.06h1.64a1.09,1.09,0,0,0,0-2.19H32.55V17.78a1.09,1.09,0,0,0-1.09-1.09H27.08a5.47,5.47,0,0,0-5.47,5.47,1.09,1.09,0,0,0,1.09,1.09H26v2.84a6.56,6.56,0,0,0-5.47,6.45V46.22a1.09,1.09,0,0,0,1.09,1.09H42.39a1.09,1.09,0,0,0,1.09-1.09V30.36A1.09,1.09,0,0,0,42.39,29.27ZM27.08,18.88h3.28v2.19H24A3.29,3.29,0,0,1,27.08,18.88Zm6.56,12.58H41.3v2.19H33.64V31.45ZM22.7,32.55A4.37,4.37,0,0,1,26,28.33V41.84a1.09,1.09,0,1,0,2.19,0V28.33a4.37,4.37,0,0,1,3.28,4.22V45.13H22.7ZM33.64,45.13v-9.3H41.3v9.3Z"/></g></svg>