<svg xmlns="http://www.w3.org/2000/svg" viewBox="0 0 64 64"><defs><style>.cls-1{fill:none;}.cls-2{fill:#fff;}</style></defs><g id="invisi-border"><rect class="cls-1" width="64" height="64"/></g><g id="icon"><path class="cls-2" d="M57,21.08a11.89,11.89,0,0,0-2.74-8.41,10.38,10.38,0,0,0-4.23-2.79V6a2,2,0,0,0-2-2h-8a2,2,0,0,0-2,2v4.09A10.93,10.93,0,0,0,33.8,13a11.42,11.42,0,0,0-2.74,8.12V23H9a2,2,0,0,0-2,2V58a2,2,0,0,0,2,2H41a2,2,0,0,0,2-2v0c.36,0,.72,0,1.11,0,5.18,0,8.91-1.26,11.09-3.73A7.41,7.41,0,0,0,57,48.91Zm-4,28.18a3.48,3.48,0,0,1-.91,2.37C50.78,53.18,48,54,44.06,54c-.4,0-.75,0-1.11,0V45H53v4A2.28,2.28,0,0,0,53.05,49.26ZM39,56H11V27H39V56Zm3.11-42.83V11h0V8h4V9h0v2h0v2.08a7.85,7.85,0,0,1,5.23,2.24A7.91,7.91,0,0,1,53,20.79,1.48,1.48,0,0,0,53,21v2h-18V21c0-.06,0-.13,0-.19A7.45,7.45,0,0,1,36.8,15.6,8.44,8.44,0,0,1,42.06,13.17ZM43,27H53V41H43Z"/><path class="cls-2" d="M31,37h.11a2,2,0,0,0,0-4H27a2,2,0,0,0-4,0H19a2,2,0,0,0,0,4H31Z"/><path class="cls-2" d="M17,41a2,2,0,0,0-2,2v7a2,2,0,0,0,4,0V43A2,2,0,0,0,17,41Z"/><path class="cls-2" d="M33.89,51.75A2,2,0,0,0,35,50V43a2,2,0,0,0-1.89-2H33a2,2,0,0,0-1.89,1.37A1.9,1.9,0,0,0,31,43v7a2,2,0,0,0,2,2A1.89,1.89,0,0,0,33.89,51.75Z"/><path class="cls-2" d="M25,41a2,2,0,0,0-2,2v7a2,2,0,0,0,4,0V43A2,2,0,0,0,25,41Z"/></g></svg>