<svg xmlns="http://www.w3.org/2000/svg" viewBox="0 0 64 64"><defs><style>.cls-1{fill:none;}.cls-2{fill:#4b2048;}</style></defs><title>consumer-goods-day2</title><g id="invisi-border"><rect class="cls-1" width="64" height="64"/></g><g id="icon"><path class="cls-2" d="M51,60H33a2,2,0,0,1-2-2V29a2,2,0,0,1,2-2H51a2,2,0,0,1,2,2V58A2,2,0,0,1,51,60ZM35,56H49V31H35Z"/><path class="cls-2" d="M51,39H33a2,2,0,0,1,0-4H51a2,2,0,0,1,0,4Z"/><path class="cls-2" d="M33,60H13a2,2,0,0,1-2-2V33a12,12,0,0,1,24,0V58A2,2,0,0,1,33,60ZM15,56H31V33a8,8,0,0,0-16,0Z"/><path class="cls-2" d="M23,52a2,2,0,0,1-2-2V23a2,2,0,0,1,4,0V50A2,2,0,0,1,23,52Z"/><path class="cls-2" d="M23,25a2,2,0,0,1-2-2V14a2,2,0,0,1,4,0v9A2,2,0,0,1,23,25Z"/><path class="cls-2" d="M31,16H15a2,2,0,0,1-2-2A10,10,0,0,1,23,4h8a2,2,0,0,1,2,2v8A2,2,0,0,1,31,16ZM17.34,12H29V8H23A6,6,0,0,0,17.34,12Z"/><path class="cls-2" d="M36,12H31a2,2,0,0,1,0-4h5a2,2,0,0,1,0,4Z"/><path class="cls-2" d="M35,20a6,6,0,0,1-6-6,2,2,0,0,1,4,0,2,2,0,0,0,2,2,2,2,0,0,1,0,4Z"/></g></svg>