<svg viewBox="0 0 32 32" xmlns="http://www.w3.org/2000/svg" xmlns:xlink="http://www.w3.org/1999/xlink"><mask id="a" fill="#fff"><path d="m31.6313824 25.6949999-14.1048892-22.77181808c-.7391209-1.23090909-2.3405493-1.23090909-3.0796702 0l-14.10488924 22.77181808c-.86230764 1.4155455 0 3.385 1.53983507 3.385h28.20977857c1.539835 0 2.4637361-1.9694545 1.539835-3.385zm-15.6447243-1.5386363c-1.0470879 0-1.8478021-.8000909-1.8478021-1.8463637 0-1.0462727.8007142-1.8463636 1.8478021-1.8463636 1.0470878 0 1.8478021.8000909 1.8478021 1.8463636 0 1.0462728-.8007143 1.8463637-1.8478021 1.8463637zm1.8478021-5.5390909c0 .3692727-.2463736.6154545-.615934.6154545h-2.4637362c-.3695604 0-.615934-.2461818-.615934-.6154545v-8.0009091c0-.3692727.2463736-.6154545.615934-.6154545h2.4637362c.3695604 0 .615934.2461818.615934.6154545z" fill="#fff" fill-rule="evenodd"/></mask><g fill="#fff" fill-rule="evenodd" mask="url(#a)"><rect height="100%" width="100%"/></g></svg>