<svg xmlns="http://www.w3.org/2000/svg" viewBox="0 0 64 64"><defs><style>.cls-1{fill:none;}.cls-2{fill:#032e61;}</style></defs><title>events-day2</title><g id="invisi-border"><rect class="cls-1" width="64" height="64"/></g><g id="icon"><path class="cls-2" d="M50,60H14a2,2,0,0,1-2-2V16a2,2,0,0,1,2-2H50a2,2,0,0,1,2,2V58A2,2,0,0,1,50,60ZM16,56H48V18H16Z"/><path class="cls-2" d="M37,26H27a2,2,0,0,1,0-4H37a2,2,0,0,1,0,4Z"/><path class="cls-2" d="M42,52H22a2,2,0,0,1,0-4H42a2,2,0,0,1,0,4Z"/><path class="cls-2" d="M42,44H22a2,2,0,0,1-2-2V32a2,2,0,0,1,2-2H42a2,2,0,0,1,2,2V42A2,2,0,0,1,42,44ZM24,40H40V34H24Z"/><path class="cls-2" d="M32,26a2,2,0,0,1-1.25-3.56C30.86,22.35,40,14.89,40,6a2,2,0,0,1,4,0c0,10.84-10.31,19.21-10.75,19.56A2,2,0,0,1,32,26Z"/><path class="cls-2" d="M25.11,18a2,2,0,0,1-1.71-1A21.28,21.28,0,0,1,20,6a2,2,0,0,1,4,0,17.36,17.36,0,0,0,2.82,9,2,2,0,0,1-1.71,3Z"/><path class="cls-2" d="M50,60H14a2,2,0,0,1-2-2V16a2,2,0,0,1,2-2H50a2,2,0,0,1,2,2V58A2,2,0,0,1,50,60ZM16,56H48V18H16Z"/><path class="cls-2" d="M37,26H27a2,2,0,0,1,0-4H37a2,2,0,0,1,0,4Z"/><path class="cls-2" d="M42,52H22a2,2,0,0,1,0-4H42a2,2,0,0,1,0,4Z"/><path class="cls-2" d="M42,44H22a2,2,0,0,1-2-2V32a2,2,0,0,1,2-2H42a2,2,0,0,1,2,2V42A2,2,0,0,1,42,44ZM24,40H40V34H24Z"/><path class="cls-2" d="M32,26a2,2,0,0,1-1.25-3.56C30.86,22.35,40,14.89,40,6a2,2,0,0,1,4,0c0,10.84-10.31,19.21-10.75,19.56A2,2,0,0,1,32,26Z"/><path class="cls-2" d="M25.11,18a2,2,0,0,1-1.71-1A21.28,21.28,0,0,1,20,6a2,2,0,0,1,4,0,17.36,17.36,0,0,0,2.82,9,2,2,0,0,1-1.71,3Z"/></g></svg>