<svg xmlns="http://www.w3.org/2000/svg" viewBox="0 0 64 64"><defs><style>.cls-1{fill:none;}.cls-2{fill:#032e61;}.cls-3{fill:#fff;}</style></defs><title>events-day3</title><g id="invisi-border"><rect class="cls-1" width="64" height="64"/></g><g id="icon"><circle class="cls-2" cx="32" cy="32" r="28"/><path class="cls-3" d="M41.84,20.41H37.57a10.78,10.78,0,0,0,1-4.37,1.09,1.09,0,0,0-2.19,0,9.19,9.19,0,0,1-1.24,4.38H28.88A9.2,9.2,0,0,1,27.63,16a1.09,1.09,0,0,0-2.19,0,10.77,10.77,0,0,0,1,4.38H22.16a1.09,1.09,0,0,0-1.09,1.09v23a1.09,1.09,0,0,0,1.09,1.09H41.84a1.09,1.09,0,0,0,1.09-1.09v-23A1.09,1.09,0,0,0,41.84,20.41Zm-1.09,23H23.25V22.59H33.66a18.52,18.52,0,0,1-2.06,2.19H29.27a1.09,1.09,0,0,0,0,2.19h5.47a1.09,1.09,0,0,0,0-2.19h0a19.2,19.2,0,0,0,1.68-2.19h4.38Z"/><path class="cls-3" d="M37.47,39H26.53a1.09,1.09,0,0,0,0,2.19H37.47a1.09,1.09,0,0,0,0-2.19Z"/><path class="cls-3" d="M26.53,29.16a1.09,1.09,0,0,0-1.09,1.09v5.47a1.09,1.09,0,0,0,1.09,1.09H37.47a1.09,1.09,0,0,0,1.09-1.09V30.25a1.09,1.09,0,0,0-1.09-1.09Zm9.84,5.47H27.63V31.34h8.75Z"/></g></svg>