<svg xmlns="http://www.w3.org/2000/svg" viewBox="0 0 32 32"><defs><style>.cls-1{fill:none;}.cls-2{fill:#fff;}.cls-3{fill:#59575c;}</style></defs><title>social-icon-facebook-night</title><g id="transparent_border" data-name="transparent border"><rect class="cls-1" width="32" height="32"/></g><g id="icon-bg"><rect class="cls-2" x="2" y="2" width="28" height="28" rx="4"/><path class="cls-2" d="M25,19.17l.54-4.24h-4.2v-2.7c0-1.23.35-2.06,2.1-2.06h2.23V6.39a32.34,32.34,0,0,0-3.26-.16c-3.22,0-5.43,2-5.43,5.58v3.12H13.32v4.24H17V30h4.34V19.17Z"/></g><g id="icons"><path class="cls-3" d="M25,19.17l.54-4.24h-4.2v-2.7c0-1.23.35-2.06,2.1-2.06h2.23V6.39a32.34,32.34,0,0,0-3.26-.16c-3.22,0-5.43,2-5.43,5.58v3.12H13.32v4.24H17V30h4.34V19.17Z"/></g></svg>