<svg xmlns="http://www.w3.org/2000/svg" viewBox="0 0 64 64"><defs><style>.cls-1{fill:none;}.cls-2{fill:#812244;}.cls-3{fill:#fff;}</style></defs><title>field-service-day3</title><g id="invisi-border"><rect class="cls-1" width="64" height="64"/></g><g id="icon"><circle class="cls-2" cx="32" cy="32" r="28"/><path class="cls-3" d="M32.29,24.87l-.29.29-.29-.29a3.76,3.76,0,0,0-5.19,0,3.67,3.67,0,0,0,0,5.19l4.71,4.71a1.09,1.09,0,0,0,1.55,0l4.71-4.71a3.67,3.67,0,0,0,0-5.19A3.76,3.76,0,0,0,32.29,24.87Zm3.65,3.65L32,32.46l-3.94-3.94a1.48,1.48,0,0,1,2.1-2.1l1.07,1.07a1.09,1.09,0,0,0,1.55,0l1.07-1.07a1.52,1.52,0,0,1,2.1,0,1.48,1.48,0,0,1,0,2.1Z"/><path class="cls-3" d="M32,16.69a11.47,11.47,0,0,0-9.4,18.06l.08.14,8.42,12a1.09,1.09,0,0,0,1.79,0l8.43-12,.08-.13A11.47,11.47,0,0,0,32,16.69Zm7.52,16.93-.09.14L32,44.32,24.57,33.77a1,1,0,0,0-.1-.16,9.3,9.3,0,1,1,15,0Z"/></g></svg>