<svg xmlns="http://www.w3.org/2000/svg" viewBox="0 0 64 64"><defs><style>.cls-1{fill:none;}.cls-2{fill:#d3679d;}.cls-3{fill:#812124;}.cls-4{fill:#fff;}</style></defs><title>field-service-day</title><g id="invisi-border"><rect class="cls-1" width="64" height="64"/></g><g id="icon"><path class="cls-2" d="M51,25A19,19,0,1,0,16.62,36.13h0L32,58,47.4,36.13h0A18.89,18.89,0,0,0,51,25Z"/><path class="cls-3" d="M32,60a2,2,0,0,1-1.63-.85L15,37.28A1.91,1.91,0,0,1,14.8,37,21,21,0,1,1,53,25a20.82,20.82,0,0,1-3.82,12.05,2,2,0,0,1-.14.23L33.63,59.15A2,2,0,0,1,32,60ZM18.42,35.25,32,54.52,45.6,35.21a1.94,1.94,0,0,1,.16-.26,17,17,0,1,0-27.52,0A2,2,0,0,1,18.42,35.25Z"/><path class="cls-4" d="M40.62,20.38h0a4.71,4.71,0,0,0-6.67,0l-2,2-2-2a4.71,4.71,0,0,0-6.67,0h0a4.71,4.71,0,0,0,0,6.67L32,35.67,40.62,27A4.71,4.71,0,0,0,40.62,20.38Z"/><path class="cls-3" d="M32,37.67a2,2,0,0,1-1.41-.59L22,28.46A6.71,6.71,0,1,1,31.46,19l.54.54.54-.54A6.71,6.71,0,0,1,42,19h0a6.71,6.71,0,0,1,0,9.5l-8.62,8.62A2,2,0,0,1,32,37.67ZM26.71,21a2.71,2.71,0,0,0-1.92,4.63L32,32.84l7.21-7.21a2.71,2.71,0,0,0,0-3.84h0a2.72,2.72,0,0,0-3.84,0l-2,2a2,2,0,0,1-2.83,0l-2-2A2.7,2.7,0,0,0,26.71,21Z"/></g></svg>