<svg xmlns="http://www.w3.org/2000/svg" viewBox="0 0 64 64"><defs><style>.cls-1{fill:none;}.cls-2{fill:#4c2248;}.cls-3{fill:#fff;}</style></defs><title>financial-day3</title><g id="invisi-border"><rect class="cls-1" width="64" height="64"/></g><g id="icon"><circle class="cls-2" cx="32" cy="32" r="28"/><path class="cls-3" d="M44.58,17.78H19.42a1.09,1.09,0,0,0-1.09,1.09V40.75a1.09,1.09,0,0,0,1.09,1.09h2.19v3.28a1.09,1.09,0,0,0,1.09,1.09H41.3a1.09,1.09,0,0,0,1.09-1.09V41.84h2.19a1.09,1.09,0,0,0,1.09-1.09V18.88A1.09,1.09,0,0,0,44.58,17.78ZM40.2,44H23.8V41.84H40.2Zm3.28-4.37h-23V20h23Z"/><path class="cls-3" d="M40.2,37.47a1.09,1.09,0,0,0,1.09-1.09V23.25a1.09,1.09,0,0,0-2.19,0V36.38A1.09,1.09,0,0,0,40.2,37.47Z"/><path class="cls-3" d="M23.8,30.91H25a4.89,4.89,0,0,0,.63,1.52l-.87.87a1.09,1.09,0,0,0,1.55,1.55L27.2,34a4.88,4.88,0,0,0,1.52.63v1.23a1.09,1.09,0,0,0,2.19,0V34.6A4.88,4.88,0,0,0,32.42,34l.87.87a1.09,1.09,0,0,0,1.55-1.55L34,32.42a4.89,4.89,0,0,0,.63-1.52h1.23a1.09,1.09,0,0,0,0-2.19H34.6A4.89,4.89,0,0,0,34,27.2l.87-.87a1.09,1.09,0,0,0-1.55-1.55l-.87.87A4.88,4.88,0,0,0,30.91,25V23.8a1.09,1.09,0,0,0-2.19,0V25a4.88,4.88,0,0,0-1.52.63l-.87-.87a1.09,1.09,0,1,0-1.55,1.55l.87.87A4.89,4.89,0,0,0,25,28.72H23.8a1.09,1.09,0,0,0,0,2.19Zm6-3.83a2.73,2.73,0,1,1-2.73,2.73A2.74,2.74,0,0,1,29.81,27.08Z"/></g></svg>