<svg xmlns="http://www.w3.org/2000/svg" viewBox="0 0 32 32"><defs><style>.cls-1{fill:none;}.cls-2{fill:#fff;}.cls-3{fill:#59575c;fill-rule:evenodd;}</style></defs><title>social-icon-google-day</title><g id="transparent_border" data-name="transparent border"><rect class="cls-1" width="32" height="32"/></g><g id="icon-bg"><rect class="cls-2" x="3.4" y="3.4" width="25.2" height="25.2" rx="3.6"/></g><g id="icons"><path class="cls-3" d="M26,2H6A4,4,0,0,0,2,6V26a4,4,0,0,0,4,4H26a4,4,0,0,0,4-4V6A4,4,0,0,0,26,2ZM21.45,22.06A7.63,7.63,0,0,1,16.16,24a8,8,0,1,1,0-16,7.67,7.67,0,0,1,5.35,2.08l-2.29,2.3a4.35,4.35,0,0,0-3.06-1.2,4.82,4.82,0,1,0,2.71,8.87,3.67,3.67,0,0,0,1.6-2.41H16.16V14.55h7.53a8.59,8.59,0,0,1,.15,1.63A7.77,7.77,0,0,1,21.45,22.06Z"/></g></svg>