<svg xmlns="http://www.w3.org/2000/svg" viewBox="0 0 64 64"><defs><style>.cls-1{fill:none;}.cls-2{fill:#4b2048;}</style></defs><title>government-day2</title><g id="invisi-border"><rect class="cls-1" width="64" height="64"/></g><g id="icon"><path class="cls-2" d="M48,49H16a2,2,0,0,1-2-2V25a2,2,0,0,1,2-2H48a2,2,0,0,1,2,2V47A2,2,0,0,1,48,49ZM18,45H46V27H18Z"/><path class="cls-2" d="M53,57H11a2,2,0,0,1-2-2V47a2,2,0,0,1,2-2H53a2,2,0,0,1,2,2v8A2,2,0,0,1,53,57ZM13,53H51V49H13Z"/><path class="cls-2" d="M48,27H16a2,2,0,0,1-2-2,18,18,0,0,1,36,0A2,2,0,0,1,48,27ZM18.14,23H45.86a14,14,0,0,0-27.71,0Z"/><path class="cls-2" d="M32,11a2,2,0,0,1-2-2V6a2,2,0,0,1,4,0V9A2,2,0,0,1,32,11Z"/><path class="cls-2" d="M40,49a2,2,0,0,1-2-2V25a2,2,0,0,1,4,0V47A2,2,0,0,1,40,49Z"/><path class="cls-2" d="M32,49a2,2,0,0,1-2-2V25a2,2,0,0,1,4,0V47A2,2,0,0,1,32,49Z"/><path class="cls-2" d="M24,49a2,2,0,0,1-2-2V25a2,2,0,0,1,4,0V47A2,2,0,0,1,24,49Z"/><path class="cls-2" d="M53,27H11a2,2,0,0,1,0-4H53a2,2,0,0,1,0,4Z"/></g></svg>