<svg xmlns="http://www.w3.org/2000/svg" viewBox="0 0 64 64"><defs><style>.cls-1{fill:none;}.cls-2{fill:#4c2248;}.cls-3{fill:#fff;}</style></defs><title>government-day3</title><g id="invisi-border"><rect class="cls-1" width="64" height="64"/></g><g id="icon"><circle class="cls-2" cx="32" cy="32" r="28"/><path class="cls-3" d="M43.48,38.18H41.84V28.34h1.64a1.09,1.09,0,1,0,0-2.19H41.78a9.86,9.86,0,0,0-8.69-8.69v-.61a1.09,1.09,0,0,0-2.19,0v.61a9.86,9.86,0,0,0-8.69,8.69H20.52a1.09,1.09,0,1,0,0,2.19h1.64v9.84H20.52a1.09,1.09,0,0,0-1.09,1.09v4.37a1.09,1.09,0,0,0,1.09,1.09h23a1.09,1.09,0,0,0,1.09-1.09V39.27A1.09,1.09,0,0,0,43.48,38.18Zm-10.39,0V28.34h2.19v9.84Zm-4.37,0V28.34h2.19v9.84Zm8.75-9.84h2.19v9.84H37.47ZM32,19.59a7.67,7.67,0,0,1,7.58,6.56H24.42A7.67,7.67,0,0,1,32,19.59Zm-7.66,8.75h2.19v9.84H24.34Zm18,14.22H21.61V40.37H42.39Z"/></g></svg>