<svg xmlns="http://www.w3.org/2000/svg" viewBox="0 0 64 64"><defs><style>.cls-1{fill:none;}.cls-2{fill:#fff;}</style></defs><g id="invisi-border"><rect class="cls-1" width="64" height="64"/></g><g id="icon"><path class="cls-2" d="M48.3,7H24.39a8.7,8.7,0,0,0-8.69,8.7A8.7,8.7,0,0,0,7,24.39V48.3A8.71,8.71,0,0,0,15.7,57H39.61a8.7,8.7,0,0,0,8.69-8.7A8.7,8.7,0,0,0,57,39.61V15.7A8.71,8.71,0,0,0,48.3,7Zm4.35,32.61A4.35,4.35,0,0,1,48.3,44H24.39A4.35,4.35,0,0,1,20,39.61V15.7a4.35,4.35,0,0,1,4.35-4.35H48.3a4.35,4.35,0,0,1,4.35,4.35Zm-13,13H15.7a4.35,4.35,0,0,1-4.35-4.35V24.39A4.35,4.35,0,0,1,15.7,20V39.61a8.7,8.7,0,0,0,8.69,8.69H44A4.35,4.35,0,0,1,39.61,52.65Z"/><path class="cls-2" d="M46.13,25.48H38.52V17.87a2.18,2.18,0,0,0-4.35,0v7.61h-7.6a2.18,2.18,0,1,0,0,4.35h7.6v7.6a2.18,2.18,0,1,0,4.35,0v-7.6h7.61a2.18,2.18,0,0,0,2.17-2.18h0A2.17,2.17,0,0,0,46.13,25.48Z"/></g></svg>