<svg xmlns="http://www.w3.org/2000/svg" viewBox="0 0 64 64"><defs><style>.cls-1{fill:none;}.cls-2{fill:#4c2248;}.cls-3{fill:#fff;}</style></defs><title>health-day3</title><g id="invisi-border"><rect class="cls-1" width="64" height="64"/></g><g id="icon"><circle class="cls-2" cx="32" cy="32" r="28"/><path class="cls-3" d="M45,23.09l-.77.77.77-.77a7.79,7.79,0,0,0-11,0l-2,2-2-2a7.8,7.8,0,0,0-11,11L31.23,46.37a1.09,1.09,0,0,0,1.55,0L45,34.12A7.8,7.8,0,0,0,45,23.09Zm-13,21-8.48-8.48h4.65a1.09,1.09,0,0,0,.95-.55l1-1.76,1.93,5.42a1.09,1.09,0,0,0,.88.72h.15a1.1,1.1,0,0,0,.89-.46l2.41-3.37h4.09ZM43.48,32.57l-.82.82H35.83a1.1,1.1,0,0,0-.89.46L33.42,36l-2-5.69a1.09,1.09,0,0,0-2-.17l-1.87,3.28h-6.2l-.82-.82a5.61,5.61,0,1,1,7.93-7.93l2.78,2.78a1.09,1.09,0,0,0,1.55,0l2.78-2.78a5.74,5.74,0,0,1,7.93,0,5.61,5.61,0,0,1,0,7.93Z"/></g></svg>