<svg xmlns="http://www.w3.org/2000/svg" viewBox="0 0 64 64"><defs><style>.cls-1{fill:none;}.cls-2{fill:#4b2048;}</style></defs><title>health-day2</title><g id="invisi-border"><rect class="cls-1" width="64" height="64"/></g><g id="icon"><path class="cls-2" d="M32,55.67a2,2,0,0,1-1.41-.59L8.18,32.67A14.26,14.26,0,0,1,28.34,12.51L32,16.17l3.66-3.66a14.27,14.27,0,0,1,20.16,0h0a14.27,14.27,0,0,1,0,20.16L33.41,55.08A2,2,0,0,1,32,55.67ZM18.26,12.34A10.25,10.25,0,0,0,11,29.84l21,21,21-21A10.26,10.26,0,0,0,38.49,15.34l-5.08,5.08a2.06,2.06,0,0,1-2.83,0l-5.08-5.08A10.23,10.23,0,0,0,18.26,12.34Z"/><path class="cls-2" d="M34,42.33l-.28,0A2,2,0,0,1,32.12,41L28.58,31.1l-1.84,3.22a2,2,0,0,1-1.74,1H12a2,2,0,0,1,0-4H23.84l3.42-6a2,2,0,0,1,3.62.32l3.71,10.4,2.78-3.89A2,2,0,0,1,39,31.33H52a2,2,0,1,1,0,4H40l-4.4,6.16A2,2,0,0,1,34,42.33Z"/></g></svg>