<svg xmlns="http://www.w3.org/2000/svg" viewBox="0 0 64 64"><defs><style>.cls-1{fill:none;}.cls-2{fill:#211746;}.cls-3{fill:#fff;}</style></defs><title>heroku-day3</title><g id="invisi-border"><rect class="cls-1" width="64" height="64"/></g><g id="icon"><circle class="cls-2" cx="32" cy="32" r="28"/><path class="cls-3" d="M44.57,45.67H19.44a1.09,1.09,0,0,1-1.09-1.09V19.44a1.09,1.09,0,0,1,1.09-1.09H44.57a1.09,1.09,0,0,1,1.09,1.09V44.57A1.09,1.09,0,0,1,44.57,45.67Zm-24-2.19H43.48V20.54H20.54Z"/><polygon class="cls-3" points="26.07 41.3 29.06 38.64 26.07 35.99 26.07 41.3"/><path class="cls-3" d="M36.86,30.54a4.27,4.27,0,0,0-3.16-1.19,16.79,16.79,0,0,0-5,.9V22.71H26.07V34.22l1.87-.85A16.63,16.63,0,0,1,33.7,32c1.35,0,1.65.74,1.66,1.36v7.93H38v-8A4.14,4.14,0,0,0,36.86,30.54Z"/><path class="cls-3" d="M33.37,27H36a7.78,7.78,0,0,0,2-4.31H35.36A10.32,10.32,0,0,1,33.37,27Z"/></g></svg>