<svg xmlns="http://www.w3.org/2000/svg" viewBox="0 0 64 64"><defs><style>.cls-1{fill:none;}.cls-2{fill:#067065;}</style></defs><title>inbox-day2</title><g id="invisi-border"><rect class="cls-1" width="64" height="64"/></g><g id="icon"><path class="cls-2" d="M58,53H6a2,2,0,0,1-2-2V13a2,2,0,0,1,2-2H58a2,2,0,0,1,2,2V51A2,2,0,0,1,58,53ZM8,49H56V15H8Z"/><path class="cls-2" d="M32,40a2,2,0,0,1-1.14-.36l-26-18a2,2,0,1,1,2.28-3.29L32,35.57,56.86,18.36a2,2,0,1,1,2.28,3.29l-26,18A2,2,0,0,1,32,40Z"/><path class="cls-2" d="M7,49a2,2,0,0,1-1.32-3.5l16-14a2,2,0,1,1,2.63,3l-16,14A2,2,0,0,1,7,49Z"/><path class="cls-2" d="M57,49a2,2,0,0,1-1.32-.5l-16-14a2,2,0,1,1,2.63-3l16,14A2,2,0,0,1,57,49Z"/></g></svg>