<svg xmlns="http://www.w3.org/2000/svg" viewBox="0 0 64 64"><defs><style>.cls-1{fill:none;}.cls-2{fill:#00857d;}.cls-3{fill:#fff;}</style></defs><title>inbox-day3</title><g id="invisi-border"><rect class="cls-1" width="64" height="64"/></g><g id="icon"><circle class="cls-2" cx="32" cy="32" r="28"/><path class="cls-3" d="M46.22,20.52H17.78a1.09,1.09,0,0,0-1.09,1.09V42.39a1.09,1.09,0,0,0,1.09,1.09H46.22a1.09,1.09,0,0,0,1.09-1.09V21.61A1.09,1.09,0,0,0,46.22,20.52ZM45.13,38.27l-6.86-6,6.86-4.75Zm0-15.57v2.16L32,34,18.88,24.86V22.7ZM18.88,27.52l6.86,4.75-6.86,6Zm0,13.77v-.17A1.05,1.05,0,0,0,19,41l8.54-7.47,3.79,2.62a1.09,1.09,0,0,0,1.25,0l3.79-2.62L45,41a1.05,1.05,0,0,0,.17.1v.17Z"/></g></svg>