<svg xmlns="http://www.w3.org/2000/svg" viewBox="0 0 64 64"><defs><style>.cls-1{fill:none;}.cls-2{fill:#9f63c6;}.cls-3{fill:#4b2048;}.cls-4{fill:#fff;}</style></defs><title>industries-day</title><g id="invisi-border"><rect class="cls-1" width="64" height="64"/></g><g id="icon"><rect class="cls-2" x="17" y="6" width="26" height="52"/><path class="cls-3" d="M43,60H17a2,2,0,0,1-2-2V6a2,2,0,0,1,2-2H43a2,2,0,0,1,2,2V58A2,2,0,0,1,43,60ZM19,56H41V8H19Z"/><rect class="cls-2" x="31" y="21" width="24" height="37"/><path class="cls-3" d="M55,60H31a2,2,0,0,1-2-2V21a2,2,0,0,1,2-2H55a2,2,0,0,1,2,2V58A2,2,0,0,1,55,60ZM33,56H53V23H33Z"/><rect class="cls-2" x="9" y="38" width="34" height="20"/><path class="cls-4" d="M47,31H39a2,2,0,0,1,0-4h8a2,2,0,0,1,0,4Z"/><path class="cls-4" d="M17,58a2,2,0,0,1-2-2V46a2,2,0,0,1,4,0V56A2,2,0,0,1,17,58Z"/><path class="cls-4" d="M26,58a2,2,0,0,1-2-2V46a2,2,0,0,1,4,0V56A2,2,0,0,1,26,58Z"/><path class="cls-4" d="M35,58a2,2,0,0,1-2-2V46a2,2,0,0,1,4,0V56A2,2,0,0,1,35,58Z"/><path class="cls-3" d="M43,60H9a2,2,0,0,1-2-2V38a2,2,0,0,1,2-2H43a2,2,0,0,1,2,2V58A2,2,0,0,1,43,60ZM11,56H41V40H11Z"/></g></svg>