<svg xmlns="http://www.w3.org/2000/svg" viewBox="0 0 64 64"><defs><style>.cls-1{fill:none;}.cls-2{fill:#4b2048;}</style></defs><title>industries-day2</title><g id="invisi-border"><rect class="cls-1" width="64" height="64"/></g><g id="icon"><path class="cls-2" d="M17,40a2,2,0,0,1-2-2V6a2,2,0,0,1,2-2H43a2,2,0,0,1,2,2V21a2,2,0,0,1-4,0V8H19V38A2,2,0,0,1,17,40Z"/><path class="cls-2" d="M55,60H31a2,2,0,0,1,0-4H53V23H33V38a2,2,0,0,1-4,0V21a2,2,0,0,1,2-2H55a2,2,0,0,1,2,2V58A2,2,0,0,1,55,60Z"/><path class="cls-2" d="M47,31H39a2,2,0,0,1,0-4h8a2,2,0,0,1,0,4Z"/><path class="cls-2" d="M43,60H9a2,2,0,0,1-2-2V38a2,2,0,0,1,2-2H43a2,2,0,0,1,2,2V58A2,2,0,0,1,43,60ZM11,56H41V40H11Z"/><path class="cls-2" d="M17,58a2,2,0,0,1-2-2V46a2,2,0,0,1,4,0V56A2,2,0,0,1,17,58Z"/><path class="cls-2" d="M26,58a2,2,0,0,1-2-2V46a2,2,0,0,1,4,0V56A2,2,0,0,1,26,58Z"/><path class="cls-2" d="M35,58a2,2,0,0,1-2-2V46a2,2,0,0,1,4,0V56A2,2,0,0,1,35,58Z"/></g></svg>