<svg width="14" height="14" viewBox="0 0 14 14" fill="none" xmlns="http://www.w3.org/2000/svg">
<path d="M7 0C3.12083 0 0 3.12083 0 7C0 10.8792 3.12083 14 7 14C10.8792 14 14 10.8792 14 7C14 3.12083 10.8792 0 7 0ZM7 3.52917C7.49583 3.52917 7.875 3.90833 7.875 4.40417C7.875 4.9 7.49583 5.27917 7 5.27917C6.50417 5.27917 6.125 4.9 6.125 4.40417C6.125 3.90833 6.50417 3.52917 7 3.52917ZM8.45833 9.65417C8.45833 9.8 8.34167 9.91667 8.16667 9.91667H7.29167C7.175 9.91667 6.41667 9.91667 6.41667 9.91667H5.83333C5.6875 9.91667 5.54167 9.82917 5.54167 9.65417V9.07083C5.54167 8.925 5.65833 8.75 5.83333 8.75C5.97917 8.75 6.125 8.6625 6.125 8.4875V7.32083C6.125 7.175 6.00833 7 5.83333 7C5.6875 7 5.54167 6.9125 5.54167 6.7375V6.15417C5.54167 6.00833 5.65833 5.83333 5.83333 5.83333H7.58333C7.72917 5.83333 7.875 5.97917 7.875 6.15417V8.4875C7.875 8.63333 7.99167 8.75 8.16667 8.75C8.3125 8.75 8.45833 8.89583 8.45833 9.07083V9.65417Z" fill="#585858"/>
</svg>
