<svg xmlns="http://www.w3.org/2000/svg" viewBox="0 0 64 64"><defs><style>.cls-1{fill:none;}.cls-2{fill:#032e61;}.cls-3{fill:#fff;fill-rule:evenodd;}</style></defs><title>integration-day3</title><g id="invisi-border"><rect class="cls-1" width="64" height="64"/></g><g id="icon"><circle class="cls-2" cx="32" cy="32" r="28"/><path class="cls-3" d="M37.85,22.22,32,31.29l-5.79-9.1a11.54,11.54,0,0,0,.95,20.38l1-3.69a7,7,0,0,1-3.92-6.4,7.27,7.27,0,0,1,1.21-4l5,7.54h3l5-7.54a7.27,7.27,0,0,1,1.21,4,7.08,7.08,0,0,1-3.45,6.16l1,3.73a11.54,11.54,0,0,0,.6-20.14Z"/><path class="cls-3" d="M32,16.69A15.31,15.31,0,1,0,47.31,32,15.33,15.33,0,0,0,32,16.69Zm0,29.44a14,14,0,1,1,14-14A14,14,0,0,1,32,46.13Z"/></g></svg>