<svg xmlns="http://www.w3.org/2000/svg" viewBox="0 0 64 64"><defs><style>.cls-1{fill:none;}.cls-2{fill:#032e61;}.cls-3{fill:#fff;}</style></defs><title>iot-day3</title><g id="invisi-border"><rect class="cls-1" width="64" height="64"/></g><g id="icon"><circle class="cls-2" cx="32" cy="32" r="28"/><path class="cls-3" d="M24.27,31.27a1.09,1.09,0,0,0,1.55,1.55,8.75,8.75,0,0,1,12.37,0,1.09,1.09,0,0,0,1.55-1.55,10.94,10.94,0,0,0-15.47,0Z"/><path class="cls-3" d="M27.36,34.36a1.09,1.09,0,0,0,1.55,1.55,4.48,4.48,0,0,1,6.19,0,1.09,1.09,0,0,0,1.55-1.55A6.72,6.72,0,0,0,27.36,34.36Z"/><path class="cls-3" d="M30.45,37.45a1.09,1.09,0,0,0,.77,1.87h1.55a1.09,1.09,0,0,0,.77-1.87A2.24,2.24,0,0,0,30.45,37.45ZM32,39h0Z"/><path class="cls-3" d="M47.46,28.31l-14.77-12a1.09,1.09,0,0,0-1.38,0l-14.77,12A1.09,1.09,0,1,0,17.92,30l2-1.67v15a1.09,1.09,0,0,0,1.09,1.09H42.94A1.09,1.09,0,0,0,44,43.38v-15l2,1.67a1.09,1.09,0,1,0,1.38-1.7Zm-5.61,14H22.16V26.56l9.84-8,9.84,8Z"/></g></svg>