<svg xmlns="http://www.w3.org/2000/svg" viewBox="0 0 64 64"><defs><style>.cls-1{fill:none;}.cls-2{fill:#fff;}</style></defs><title>iot-night</title><g id="invisi-border"><rect class="cls-1" width="64" height="64"/></g><g id="icon"><path class="cls-2" d="M44.73,36.27a2,2,0,0,1-1.41-.59,16,16,0,0,0-22.63,0,2,2,0,0,1-2.83-2.83,20,20,0,0,1,28.28,0,2,2,0,0,1-1.41,3.41Z"/><path class="cls-2" d="M39.07,41.93a2,2,0,0,1-1.41-.59,8,8,0,0,0-11.31,0,2,2,0,0,1-2.83-2.83,12,12,0,0,1,17,0,2,2,0,0,1-1.41,3.41Z"/><path class="cls-2" d="M33.41,47.59H30.59a2,2,0,0,1-1.42-3.41,4,4,0,0,1,5.66,0,2,2,0,0,1-1.42,3.41ZM32,47h0Z"/><path class="cls-2" d="M59,31a2,2,0,0,1-1.26-.45L32,9.58l-25.74,21a2,2,0,1,1-2.53-3.1l27-22a2,2,0,0,1,2.53,0l27,22A2,2,0,0,1,59,31Z"/><path class="cls-2" d="M52,57H12a2,2,0,0,1-2-2V24a2,2,0,0,1,4,0V53H50V24a2,2,0,0,1,4,0V55A2,2,0,0,1,52,57Z"/></g></svg>