<?xml version="1.0" encoding="UTF-8"?>
<svg width="32px" height="32px" viewBox="0 0 32 32" version="1.1" xmlns="http://www.w3.org/2000/svg" xmlns:xlink="http://www.w3.org/1999/xlink">
    <!-- Generator: Sketch 51.1 (57501) - http://www.bohemiancoding.com/sketch -->
    <title>icon/utility/ui-night/lightning-night</title>
    <desc>Created with Sketch.</desc>
    <defs>
        <path d="M16,2 C8.27068151,2 2.00952991,8.2611516 2,15.9904701 C2,15.9904701 2,15.9904701 2,16 C2,16 2,16 2,16.0095299 C2.00952991,23.7388484 8.27068151,30 16,30 C23.7293185,30 29.9904701,23.7096981 30,15.9904701 C29.9904701,8.25162169 23.7293185,2 16,2 Z M18.5377593,13.987507 L16.1754625,13.987507 C16.0784816,13.987507 16.0100905,13.8804357 16.0588612,13.7929847 L18.3533275,9.51517578 C18.4020982,9.42772483 18.3337071,9.32065348 18.2367262,9.32065348 L14.5811644,9.32065348 C14.5228638,9.32065348 14.4645631,9.35933371 14.4550332,9.42772483 L13.1522383,15.1636102 C13.123088,15.2314407 13.1813886,15.3188916 13.2688396,15.3188916 L14.8149275,15.3188916 C14.8928486,15.3188916 14.9606791,15.3867222 14.9511492,15.4741731 L14.3580524,19.5574598 C14.338432,19.6936814 14.5234244,19.7716025 14.6013454,19.6544406 L18.6459518,14.2005285 C18.7042524,14.1226075 18.6459518,13.9863858 18.5388804,13.9863858 L18.5377593,13.987507 Z M21.1820293,12.859614 L12.4419797,25.090414 C12.3741491,25.1974854 12.1891567,25.1290943 12.2087771,24.9934332 L13.4045007,16.8072395 C13.4140306,16.7293185 13.35573,16.651958 13.268279,16.651958 L11.5960599,16.651958 C11.508609,16.651958 11.4503083,16.574037 11.4699287,16.486586 L13.3753504,8.08681028 C13.3848803,8.02850965 13.4431809,7.97973893 13.5014815,7.97973893 L20.4527108,7.97973893 C20.5496917,7.97973893 20.6180828,8.08681028 20.5693121,8.17426123 L18.2748458,12.4520702 C18.2260751,12.5395211 18.2944662,12.6465925 18.3914471,12.6465925 L21.074958,12.6465925 C21.1820293,12.6465925 21.2498599,12.7631937 21.1820293,12.8607352 L21.1820293,12.859614 Z" id="path-1"></path>
    </defs>
    <g id="icon/utility/ui-night/lightning-night" stroke="none" stroke-width="1" fill="none" fill-rule="evenodd">
        <mask id="mask-2" fill="white">
            <use xlink:href="#path-1"></use>
        </mask>
        <g id="Shape" fill-rule="nonzero"></g>
        <g id="colors/white/snow-ffffff" mask="url(#mask-2)" fill="#FFFFFF">
            <rect id="Brand-Color" x="0" y="0" width="32" height="32"></rect>
        </g>
    </g>
</svg>