<svg xmlns="http://www.w3.org/2000/svg" viewBox="0 0 64 64"><defs><style>.cls-1{fill:none;}.cls-2{fill:#4c2248;}.cls-3{fill:#fff;}</style></defs><title>manufacturing-day3</title><g id="invisi-border"><rect class="cls-1" width="64" height="64"/></g><g id="icon"><circle class="cls-2" cx="32" cy="32" r="28"/><path class="cls-3" d="M46.22,28.72H44.14a12.41,12.41,0,0,0-1.23-3l1.47-1.47a1.09,1.09,0,0,0,0-1.55l-3.09-3.09a1.09,1.09,0,0,0-1.55,0l-1.47,1.47a12.41,12.41,0,0,0-3-1.23V17.78a1.09,1.09,0,0,0-1.09-1.09H29.81a1.09,1.09,0,0,0-1.09,1.09v2.08a12.41,12.41,0,0,0-3,1.23l-1.47-1.47a1.09,1.09,0,0,0-1.55,0l-3.09,3.09a1.09,1.09,0,0,0,0,1.55l1.47,1.47a12.41,12.41,0,0,0-1.23,3H17.78a1.09,1.09,0,0,0-1.09,1.09v4.38a1.09,1.09,0,0,0,1.09,1.09h2.08a12.42,12.42,0,0,0,1.23,3l-1.47,1.47a1.09,1.09,0,0,0,0,1.55l3.09,3.09a1.09,1.09,0,0,0,1.55,0l1.47-1.47a12.41,12.41,0,0,0,3,1.23v2.08a1.09,1.09,0,0,0,1.09,1.09h4.38a1.09,1.09,0,0,0,1.09-1.09V44.14a12.41,12.41,0,0,0,3-1.23l1.47,1.47a1.09,1.09,0,0,0,1.55,0l3.09-3.09a1.09,1.09,0,0,0,0-1.55l-1.47-1.47a12.42,12.42,0,0,0,1.23-3h2.08a1.09,1.09,0,0,0,1.09-1.09V29.81A1.09,1.09,0,0,0,46.22,28.72Zm-1.09,4.38H43.27A1.09,1.09,0,0,0,42.2,34a10.28,10.28,0,0,1-1.58,3.83,1.09,1.09,0,0,0,.13,1.39l1.31,1.31-1.55,1.55L39.2,40.75a1.09,1.09,0,0,0-1.39-.13A10.25,10.25,0,0,1,34,42.2a1.09,1.09,0,0,0-.89,1.07v1.85H30.91V43.27A1.09,1.09,0,0,0,30,42.2a10.25,10.25,0,0,1-3.83-1.58,1.09,1.09,0,0,0-1.39.13l-1.31,1.31-1.55-1.55,1.31-1.31a1.09,1.09,0,0,0,.13-1.39A10.28,10.28,0,0,1,21.8,34a1.09,1.09,0,0,0-1.07-.89H18.88V30.91h1.85A1.09,1.09,0,0,0,21.8,30a10.25,10.25,0,0,1,1.58-3.83,1.09,1.09,0,0,0-.13-1.39l-1.31-1.31,1.55-1.55,1.31,1.31a1.09,1.09,0,0,0,1.39.13A10.25,10.25,0,0,1,30,21.8a1.09,1.09,0,0,0,.89-1.07V18.88h2.19v1.85A1.09,1.09,0,0,0,34,21.8a10.25,10.25,0,0,1,3.83,1.58,1.09,1.09,0,0,0,1.39-.13l1.31-1.31,1.55,1.55L40.75,24.8a1.09,1.09,0,0,0-.13,1.39A10.25,10.25,0,0,1,42.2,30a1.09,1.09,0,0,0,1.07.89h1.85Z"/><path class="cls-3" d="M32,23.8A8.2,8.2,0,1,0,40.2,32,8.21,8.21,0,0,0,32,23.8ZM32,38a6,6,0,1,1,6-6A6,6,0,0,1,32,38Z"/><path class="cls-3" d="M32,28.17A3.83,3.83,0,1,0,35.83,32,3.83,3.83,0,0,0,32,28.17Zm0,5.47A1.64,1.64,0,1,1,33.64,32,1.64,1.64,0,0,1,32,33.64Z"/></g></svg>