<svg xmlns="http://www.w3.org/2000/svg" viewBox="0 0 64 64"><defs><style>.cls-1{fill:none;}.cls-2{fill:#e67300;}.cls-3{fill:#fff;}</style></defs><title>marketing-day3</title><g id="invisi-border"><rect class="cls-1" width="64" height="64"/></g><g id="icon"><circle class="cls-2" cx="32" cy="32" r="28"/><path class="cls-3" d="M46.5,42.49l-5.38-5.38a12,12,0,1,0-4.41,4.15l5.52,5.52a1.09,1.09,0,0,0,1.55,0L46.5,44A1.09,1.09,0,0,0,46.5,42.49ZM21.12,30.69a9.84,9.84,0,1,1,16.82,6.93,7.09,7.09,0,0,0-3.53-4.91,5.47,5.47,0,1,0-6.89,0A7.09,7.09,0,0,0,24,37.62,9.81,9.81,0,0,1,21.12,30.69Zm6.56-2.19A3.28,3.28,0,1,1,31,31.78,3.29,3.29,0,0,1,27.68,28.5ZM26,39.17a1.05,1.05,0,0,0,.06-.27,4.92,4.92,0,1,1,9.84,0,1.05,1.05,0,0,0,.06.27,9.75,9.75,0,0,1-10,0Zm17,5.29L38.55,40a12.11,12.11,0,0,0,1.22-1.16l4.41,4.41Z"/></g></svg>