<svg xmlns="http://www.w3.org/2000/svg" viewBox="0 0 64 64"><defs><style>.cls-1{fill:none;}.cls-2{fill:#4c2248;}.cls-3{fill:#fff;}</style></defs><title>media-day3</title><g id="invisi-border"><rect class="cls-1" width="64" height="64"/></g><g id="icon"><circle class="cls-2" cx="32" cy="32" r="28"/><path class="cls-3" d="M47,27.83a1.09,1.09,0,0,0-1-.15L42,29V27.08A1.09,1.09,0,0,0,40.86,26H38.93A4.91,4.91,0,0,0,31,20.19,4.91,4.91,0,0,0,23.1,26H21.17a1.09,1.09,0,0,0-1.09,1.09v9.84A1.09,1.09,0,0,0,21.17,38h5L24,44.21a1.09,1.09,0,0,0,2.06.74L28.51,38h5L36,44.95a1.09,1.09,0,0,0,2.06-.74L35.85,38h5A1.09,1.09,0,0,0,42,36.92V35l4,1.34a1.09,1.09,0,0,0,1.44-1V28.72A1.09,1.09,0,0,0,47,27.83ZM34.84,20.52a2.73,2.73,0,1,1-2.73,2.73A2.74,2.74,0,0,1,34.84,20.52ZM24.45,23.25A2.73,2.73,0,1,1,27.19,26,2.74,2.74,0,0,1,24.45,23.25ZM39.77,35.83H22.27V28.17h17.5Zm5.47-2.06L42,32.67V31.33l3.28-1.09v3.53Z"/></g></svg>