<svg xmlns="http://www.w3.org/2000/svg" viewBox="0 0 64 64"><defs><style>.cls-1{fill:none;}.cls-2{fill:#4b2048;}</style></defs><title>media-day2</title><g id="invisi-border"><rect class="cls-1" width="64" height="64"/></g><g id="icon"><path class="cls-2" d="M45,43H9a2,2,0,0,1-2-2V23a2,2,0,0,1,2-2H45a2,2,0,0,1,2,2V41A2,2,0,0,1,45,43ZM11,39H43V25H11Z"/><path class="cls-2" d="M55,36a2,2,0,0,1-2-2V28.77L46.63,30.9a2,2,0,1,1-1.26-3.79l9-3A2,2,0,0,1,57,26v8A2,2,0,0,1,55,36Z"/><path class="cls-2" d="M55,40a2,2,0,0,1-.63-.1l-9-3a2,2,0,1,1,1.26-3.79L53,35.23V34a2,2,0,0,1,4,0v4a2,2,0,0,1-2,2Z"/><path class="cls-2" d="M34,25a9,9,0,1,1,9-9A9,9,0,0,1,34,25Zm0-14a5,5,0,1,0,5,5A5,5,0,0,0,34,11Z"/><path class="cls-2" d="M20,25a9,9,0,1,1,9-9A9,9,0,0,1,20,25Zm0-14a5,5,0,1,0,5,5A5,5,0,0,0,20,11Z"/><path class="cls-2" d="M16,57a2,2,0,0,1-1.88-2.67l5-14a2,2,0,1,1,3.77,1.35l-5,14A2,2,0,0,1,16,57Z"/><path class="cls-2" d="M38,57a2,2,0,0,1-1.88-1.33l-5-14a2,2,0,1,1,3.77-1.35l5,14A2,2,0,0,1,38,57Z"/></g></svg>