<svg xmlns="http://www.w3.org/2000/svg" viewBox="0 0 64 64"><defs><style>.cls-1{fill:none;}.cls-2{fill:#fff;}</style></defs><title>media-night</title><g id="invisi-border"><rect class="cls-1" width="64" height="64"/></g><g id="icon"><path class="cls-2" d="M45,43H9a2.0001,2.0001,0,0,1-2-2V23a2.0001,2.0001,0,0,1,2-2H45a2.0001,2.0001,0,0,1,2,2V41A2.0001,2.0001,0,0,1,45,43ZM11,39H43V25H11Z"/><path class="cls-2" d="M55,36a2.0001,2.0001,0,0,1-2-2V28.77441l-6.36768,2.123a2,2,0,1,1-1.26465-3.79492l9-3A2.00052,2.00052,0,0,1,57,26v8A2.0001,2.0001,0,0,1,55,36Z"/><path class="cls-2" d="M55,40a2.012,2.012,0,0,1-.63232-.10254l-9-3a2,2,0,1,1,1.26465-3.79492L53,35.22559V34a2,2,0,0,1,4,0v4a2.00083,2.00083,0,0,1-2,2Z"/><path class="cls-2" d="M34,25a9,9,0,1,1,9-9A9.01015,9.01015,0,0,1,34,25Zm0-14a5,5,0,1,0,5,5A5.00589,5.00589,0,0,0,34,11Z"/><path class="cls-2" d="M20,25a9,9,0,1,1,9-9A9.01015,9.01015,0,0,1,20,25Zm0-14a5,5,0,1,0,5,5A5.00589,5.00589,0,0,0,20,11Z"/><path class="cls-2" d="M16,57.001a2.00155,2.00155,0,0,1-1.8833-2.67383l5-14a1.99989,1.99989,0,1,1,3.7666,1.3457l-5,14A2.00152,2.00152,0,0,1,16,57.001Z"/><path class="cls-2" d="M38,57.001a2.00152,2.00152,0,0,1-1.8833-1.32812l-5-14a1.99989,1.99989,0,1,1,3.7666-1.3457l5,14A2.00155,2.00155,0,0,1,38,57.001Z"/></g></svg>