<svg viewBox="0 0 100 100" xmlns="http://www.w3.org/2000/svg"><path d="m56.923 45.962h29.615c1.924 0 2.5-2.116.962-3.654l-9.423-9.616 17.308-17.5c.96-.96.96-2.692 0-3.654l-7.115-7.115c-.962-.77-2.5-.77-3.655.192l-17.307 17.308-9.808-9.423c-1.538-1.538-3.654-.962-3.654.962v29.615c0 1.346 1.73 2.885 3.077 2.885zm-13.846 7.884h-29.615c-1.924 0-2.5 2.116-.962 3.654l9.423 9.615-17.308 17.5c-.96.962-.96 2.693 0 3.654l7.116 7.115c.962.96 2.5.96 3.655 0l17.5-17.5 9.807 9.423c1.346 1.73 3.462 1.154 3.462-.77v-29.422c0-1.346-1.73-3.27-3.077-3.27z" fill="#fff"/></svg>