<svg viewBox="0 0 100 100" xmlns="http://www.w3.org/2000/svg"><path d="m65.577 53.73 27.5-27.71c1.27-1.27 1.27-3.174 0-4.445l-4.23-4.44c-1.272-1.27-3.175-1.27-4.445 0l-27.708 27.712c-.847.845-2.115.845-2.96 0l-27.716-27.925c-1.27-1.27-3.174-1.27-4.445 0l-4.44 4.442c-1.27 1.27-1.27 3.174 0 4.444l27.71 27.71c.846.846.846 2.116 0 2.962l-27.92 27.923c-1.27 1.27-1.27 3.174 0 4.444l4.442 4.442c1.27 1.268 3.174 1.268 4.444 0l27.71-27.713c.846-.847 2.116-.847 2.962 0l27.709 27.714c1.27 1.268 3.174 1.268 4.445 0l4.44-4.445c1.27-1.268 1.27-3.17 0-4.44l-27.5-27.712c-.847-.847-.847-2.115 0-2.96z" fill="#fff"/></svg>