<svg xmlns="http://www.w3.org/2000/svg" viewBox="0 0 64 64"><defs><style>.cls-1{fill:none;}.cls-2{fill:#fff;}</style></defs><title>philanthropy-night</title><g id="invisi-border"><rect class="cls-1" width="64" height="64"/></g><g id="icon"><path class="cls-2" d="M30,30A13,13,0,1,1,43,17,13,13,0,0,1,30,30ZM30,8a9,9,0,1,0,9,9A9,9,0,0,0,30,8Z"/><path class="cls-2" d="M57,38A6.71,6.71,0,0,0,45.54,33.3l-.31.31A19,19,0,0,0,11.15,42.5L11,60H49l-.09-11.08L55,42.79A6.67,6.67,0,0,0,57,38ZM15,56V44.53a15,15,0,0,1,22.16-12.7,6.72,6.72,0,0,0-2.21,11l8.62,8.62A2,2,0,0,0,45,52v4ZM52.21,40,45,47.17,37.79,40a2.71,2.71,0,0,1,3.84-3.84l2,2a2,2,0,0,0,2.83,0l2-2a2.72,2.72,0,0,1,3.84,0h0a2.71,2.71,0,0,1,0,3.84Z"/></g></svg>