<svg xmlns="http://www.w3.org/2000/svg" viewBox="0 0 64 64"><defs><style>.cls-1{fill:none;}.cls-2{fill:#4c2248;}.cls-3{fill:#fff;}</style></defs><title>philanthropy-day3</title><g id="invisi-border"><rect class="cls-1" width="64" height="64"/></g><g id="icon"><circle class="cls-2" cx="32" cy="32" r="28"/><path class="cls-3" d="M31.81,29.91a7.1,7.1,0,1,1,7.1-7.1A7.11,7.11,0,0,1,31.81,29.91Zm0-12a4.92,4.92,0,1,0,4.92,4.92A4.92,4.92,0,0,0,31.81,17.88Z"/><path class="cls-3" d="M46.57,34.3a3.67,3.67,0,0,0-6.26-2.59l-.17.17a10.4,10.4,0,0,0-18.62,4.86l-.08,9.56H42.2l-.05-6.05,3.35-3.35A3.64,3.64,0,0,0,46.57,34.3Zm-23,9.81V37.85a8.19,8.19,0,0,1,12.11-6.94,3.67,3.67,0,0,0-1.21,6l4.71,4.71a1.09,1.09,0,0,0,.77.32v2.19Zm20.33-8.76L40,39.29l-3.94-3.94a1.48,1.48,0,0,1,2.1-2.1l1.07,1.07a1.09,1.09,0,0,0,1.55,0l1.07-1.07a1.49,1.49,0,0,1,2.1,0h0a1.48,1.48,0,0,1,0,2.1Z"/></g></svg>