<svg xmlns="http://www.w3.org/2000/svg" viewBox="0 0 64 64"><defs><style>.cls-1{fill:none;}.cls-2{fill:#9f63c6;}.cls-3{fill:#4b2048;}.cls-4{fill:#fff;}</style></defs><title>philanthropy-day</title><g id="invisi-border"><rect class="cls-1" width="64" height="64"/></g><g id="icon"><path class="cls-2" d="M15,56H45V44.53a15,15,0,0,0-30,0Z"/><circle class="cls-2" cx="30" cy="17" r="11"/><path class="cls-3" d="M30,30A13,13,0,1,1,43,17,13,13,0,0,1,30,30ZM30,8a9,9,0,1,0,9,9A9,9,0,0,0,30,8Z"/><path class="cls-3" d="M49,60H11l.15-17.5a19,19,0,0,1,37.7,0ZM15,56H45V44.53a15,15,0,0,0-30,0Z"/><path class="cls-4" d="M53.62,34.71h0a4.71,4.71,0,0,0-6.67,0l-2,2-2-2a4.71,4.71,0,0,0-6.67,0h0a4.71,4.71,0,0,0,0,6.67L45,50l8.62-8.62A4.71,4.71,0,0,0,53.62,34.71Z"/><path class="cls-3" d="M45,52a2,2,0,0,1-1.41-.59L35,42.79a6.71,6.71,0,1,1,9.5-9.5l.54.54.54-.54A6.71,6.71,0,1,1,55,42.79l-8.62,8.62A2,2,0,0,1,45,52ZM39.71,35.33A2.71,2.71,0,0,0,37.79,40L45,47.17,52.2,40a2.71,2.71,0,0,0-3.84-3.84l-2,2a2,2,0,0,1-1.41.59h0a2,2,0,0,1-1.42-.59l-2-2A2.7,2.7,0,0,0,39.71,35.33Z"/></g></svg>