<svg xmlns="http://www.w3.org/2000/svg" viewBox="0 0 64 64"><defs><style>.cls-1{fill:none;}.cls-2{fill:#032e61;}</style></defs><title>placeholder3-day2</title><g id="invisi-border"><rect class="cls-1" width="64" height="64"/></g><g id="icon"><path class="cls-2" d="M31.89783,57A24.99992,24.99992,0,1,1,56.89775,32.00008,25.02846,25.02846,0,0,1,31.89783,57Zm0-45.99977A20.99985,20.99985,0,1,0,52.89768,32.00008,21.02336,21.02336,0,0,0,31.89783,11.00023Z"/><path class="cls-2" d="M31.89783,38.90214A10.86158,10.86158,0,1,1,42.75916,28.04032,10.874,10.874,0,0,1,31.89783,38.90214Zm0-17.72315a6.86158,6.86158,0,1,0,6.86133,6.86133A6.86929,6.86929,0,0,0,31.89783,21.179Z"/><path class="cls-2" d="M31.89783,57.00008c-9.0791,0-13.29443-4.45361-13.46972-4.64355a1.99975,1.99975,0,0,1-.53028-1.35645V48.98153a14,14,0,1,1,28,0v2.01855a1.99974,1.99974,0,0,1-.53027,1.35645C45.19227,52.54647,40.97694,57.00008,31.89783,57.00008Zm-10-6.895c1.18018.92285,4.3628,2.895,10,2.895,5.58838,0,8.81055-1.98535,10-2.90234V48.98153a10,10,0,1,0-20,0Zm22,.895h0Z"/><path class="cls-2" d="M54.58533,36.00008a1.99269,1.99269,0,0,1-1.41406-.58594l-5-5A1.99979,1.99979,0,0,1,50.9994,27.586l3.58593,3.58545L58.17127,27.586a1.99979,1.99979,0,0,1,2.82813,2.82812l-5,5A1.99269,1.99269,0,0,1,54.58533,36.00008Z"/></g></svg>