<svg xmlns="http://www.w3.org/2000/svg" viewBox="0 0 64 64"><defs><style>.cls-1{fill:none;}.cls-2{fill:#032e61;}.cls-3{fill:#fff;}</style></defs><title>placeholder1-day3</title><g id="invisi-border"><rect class="cls-1" width="64" height="64"/></g><g id="icon"><circle class="cls-2" cx="32" cy="32" r="28"/><path class="cls-3" d="M44.57,45H19.43a1.09,1.09,0,0,1-1.09-1.09v-18a3.28,3.28,0,0,1,3.28-3.28H42.38a3.28,3.28,0,0,1,3.28,3.28v18A1.09,1.09,0,0,1,44.57,45Zm-24-2.19h23V25.86a1.09,1.09,0,0,0-1.09-1.09H21.62a1.09,1.09,0,0,0-1.09,1.09Z"/><path class="cls-3" d="M27.08,34.6a3.83,3.83,0,1,1,3.83-3.83A3.83,3.83,0,0,1,27.08,34.6Zm0-5.46a1.64,1.64,0,1,0,1.64,1.64A1.64,1.64,0,0,0,27.08,29.13Z"/><path class="cls-3" d="M36.92,34.6a3.83,3.83,0,1,1,3.83-3.83A3.83,3.83,0,0,1,36.92,34.6Zm0-5.46a1.64,1.64,0,1,0,1.64,1.64A1.64,1.64,0,0,0,36.92,29.13Z"/><path class="cls-3" d="M32,19.3a1.09,1.09,0,0,1-1.09-1.09V17.11a1.09,1.09,0,0,1,2.19,0V18.2A1.09,1.09,0,0,1,32,19.3Z"/><path class="cls-3" d="M32,40.58a7,7,0,0,1-4.86-1.93,1.06,1.06,0,1,1,1.46-1.55,4.95,4.95,0,0,0,6.79,0,1.06,1.06,0,1,1,1.46,1.55A7,7,0,0,1,32,40.58Z"/><path class="cls-3" d="M46.21,35.15H44.57a1.09,1.09,0,0,1,0-2.19h1.64a1.09,1.09,0,0,1,0,2.19Z"/><path class="cls-3" d="M19.43,35.15H17.79a1.09,1.09,0,0,1,0-2.19h1.64a1.09,1.09,0,0,1,0,2.19Z"/><path class="cls-3" d="M38.18,24.76a1.09,1.09,0,0,1-1-.73,5.47,5.47,0,0,0-10.31,0,1.09,1.09,0,0,1-2.06-.73,7.65,7.65,0,0,1,14.43,0,1.09,1.09,0,0,1-1,1.46Z"/></g></svg>