<svg xmlns="http://www.w3.org/2000/svg" viewBox="0 0 64 64"><defs><style>.cls-1{fill:none;}.cls-2{fill:#032e61;}.cls-3{fill:#fff;}</style></defs><title>placeholder5-day3</title><g id="invisi-border"><rect class="cls-1" width="64" height="64"/></g><g id="icon"><circle class="cls-2" cx="32" cy="32" r="29"/><path class="cls-3" d="M45,24.64H39.36V17.27a1.13,1.13,0,0,0-1.13-1.13H23.5a1.14,1.14,0,0,0-1.13,1.13v17H19a1.13,1.13,0,0,0-1.13,1.13V46.73A1.14,1.14,0,0,0,19,47.86H45a1.14,1.14,0,0,0,1.13-1.13v-21A1.13,1.13,0,0,0,45,24.64ZM24.64,18.41H37.1v6.23H31.43a1.13,1.13,0,0,0-1.13,1.13v8.5H24.64ZM34.83,45.59V39.93a1.13,1.13,0,1,0-2.26,0v5.66H29.73V39.93a1.13,1.13,0,1,0-2.26,0v5.66H24.64V39.93a1.14,1.14,0,0,0-2.27,0v5.66H20.11V36.53h17v9.06Zm9.06,0H39.36V35.4a1.12,1.12,0,0,0-1.13-1.13H32.57V26.9H43.89Z"/><path class="cls-3" d="M34.83,30.3A1.13,1.13,0,0,0,36,31.43H40.5a1.13,1.13,0,1,0,0-2.26H36A1.14,1.14,0,0,0,34.83,30.3Z"/></g></svg>