<svg xmlns="http://www.w3.org/2000/svg" viewBox="0 0 64 64"><defs><style>.cls-1{fill:none;}.cls-2{fill:#00a1e0;}.cls-3{fill:#032e61;}.cls-4{fill:#fff;}</style></defs><title>placeholder3-day</title><g id="invisi-border"><rect class="cls-1" width="64" height="64"/></g><g id="icon"><circle class="cls-2" cx="31.99994" cy="32.00025" r="22"/><path class="cls-3" d="M31.99994,57.00016A24.99992,24.99992,0,1,1,56.99986,32.00025,25.02846,25.02846,0,0,1,31.99994,57.00016Zm0-45.99976A20.99985,20.99985,0,1,0,52.99979,32.00025,21.02335,21.02335,0,0,0,31.99994,11.0004Z"/><circle class="cls-4" cx="31.99994" cy="28.04069" r="8.86154"/><path class="cls-3" d="M31.99994,38.9023A10.86157,10.86157,0,1,1,42.86127,28.04048,10.874,10.874,0,0,1,31.99994,38.9023Zm0-17.72314a6.86157,6.86157,0,1,0,6.86133,6.86132A6.86929,6.86929,0,0,0,31.99994,21.17916Z"/><path class="cls-4" d="M43.99994,48.98178a12,12,0,0,0-24,0v2.01847s3.69231,4,12,4,12-4,12-4Z"/><path class="cls-3" d="M31.99994,57.00025c-9.0791,0-13.29443-4.45362-13.46972-4.64356a1.99973,1.99973,0,0,1-.53028-1.35644V48.98169a14,14,0,0,1,28,0v2.01856a1.99972,1.99972,0,0,1-.53027,1.35644C45.29438,52.54663,41.079,57.00025,31.99994,57.00025Zm-10-6.895c1.18018.92285,4.3628,2.895,10,2.895,5.58838,0,8.81055-1.98536,10-2.90235V48.98169a10,10,0,0,0-20,0Zm22,.895h0Z"/><path class="cls-3" d="M54.68744,36.00025a1.99271,1.99271,0,0,1-1.41406-.58594l-5-5a1.99979,1.99979,0,1,1,2.82813-2.82813l3.58593,3.58545,3.58594-3.58545a1.99979,1.99979,0,0,1,2.82813,2.82813l-5,5A1.99273,1.99273,0,0,1,54.68744,36.00025Z"/></g></svg>