<svg xmlns="http://www.w3.org/2000/svg" viewBox="0 0 64 64"><defs><style>.cls-1{fill:none;}.cls-2{fill:#032e61;}.cls-3{fill:#fff;}</style></defs><title>placeholder2-day3</title><g id="invisi-border"><rect class="cls-1" width="64" height="64"/></g><g id="icon"><circle class="cls-2" cx="32" cy="32" r="28"/><path class="cls-3" d="M32,36.92a5.47,5.47,0,0,1-5.46-5.46V23.8a5.47,5.47,0,1,1,10.93,0v7.65A5.47,5.47,0,0,1,32,36.92Zm0-16.4a3.28,3.28,0,0,0-3.28,3.28v7.65a3.28,3.28,0,1,0,6.56,0V23.8A3.28,3.28,0,0,0,32,20.52Z"/><path class="cls-3" d="M35.83,45.66H28.17a1.09,1.09,0,1,1,0-2.19h7.65a1.09,1.09,0,1,1,0,2.19Z"/><path class="cls-3" d="M32,45.66a1.09,1.09,0,0,1-1.09-1.09V40.2a1.09,1.09,0,0,1,2.19,0v4.37A1.09,1.09,0,0,1,32,45.66Z"/><path class="cls-3" d="M32,32.55a1.09,1.09,0,0,1-1.09-1.09V23.8a1.09,1.09,0,0,1,2.19,0v7.65A1.09,1.09,0,0,1,32,32.55Z"/><path class="cls-3" d="M32,41.2a9.79,9.79,0,0,1-9.77-9.77V30.36a1,1,0,1,1,2.06,0v1.06a7.71,7.71,0,1,0,15.43,0V30.36a1,1,0,1,1,2.06,0v1.06A9.79,9.79,0,0,1,32,41.2Z"/></g></svg>