<svg xmlns="http://www.w3.org/2000/svg" viewBox="0 0 64 64"><defs><style>.cls-1{fill:none;}.cls-2{fill:#8c5ec6;}.cls-3{fill:#fff;}.cls-4{fill:#481a54;}</style></defs><g id="invisi-border"><rect class="cls-1" width="64" height="64"/></g><g id="icon"><path class="cls-2" d="M31.87,30h8.07a32.37,32.37,0,0,0-1.25-7.76l-.62.17a30,30,0,0,1-6.2.85Z"/><path class="cls-2" d="M41.11,17.2a22.67,22.67,0,0,0,3.56-1.92A22.15,22.15,0,0,0,37.13,11,24.81,24.81,0,0,1,41.11,17.2Z"/><path class="cls-2" d="M18.11,44.77a35.76,35.76,0,0,1-2-10.77h-8a22,22,0,0,0,5.65,12.84A41.58,41.58,0,0,1,18.11,44.77Z"/><path class="cls-2" d="M8.1,30h8a36.92,36.92,0,0,1,1.58-9.46,43,43,0,0,1-4.78-2.36A22.05,22.05,0,0,0,8.1,30Z"/><path class="cls-2" d="M19.09,16.81a24.87,24.87,0,0,1,3.68-5.69,22.29,22.29,0,0,0-7,4.08C16.89,15.81,18,16.35,19.09,16.81Z"/><path class="cls-2" d="M31.87,11.47V19.3a25.94,25.94,0,0,0,5.4-.79A20,20,0,0,0,31.87,11.47Z"/><path class="cls-2" d="M47.71,37.36s.2.22.2.23l.21-.23.31-.31a6.72,6.72,0,0,1,3.63-1.88c.06-.39.12-.77.16-1.17H44c0,.41-.05.8-.08,1.19a6.72,6.72,0,0,1,3.52,1.86Z"/><path class="cls-2" d="M44,30h8.26a22,22,0,0,0-4.75-11.8,26.79,26.79,0,0,1-5,2.73A36.84,36.84,0,0,1,44,30Z"/><path class="cls-2" d="M37.09,53A21.93,21.93,0,0,0,42,50.72l-1.9-1.9A25.28,25.28,0,0,1,37.09,53Z"/><path class="cls-2" d="M39.82,35.67c0-.54.09-1.09.12-1.67H31.87v8.23a31.47,31.47,0,0,1,4,.42A6.73,6.73,0,0,1,39.82,35.67Z"/><path class="cls-2" d="M22.89,18.16a29.37,29.37,0,0,0,5,1V11.69A19.8,19.8,0,0,0,22.89,18.16Z"/><path class="cls-2" d="M36.57,46.83a26.35,26.35,0,0,0-4.7-.62v6.33A19.75,19.75,0,0,0,36.57,46.83Z"/><path class="cls-2" d="M16.91,49.71a22.66,22.66,0,0,0,5.88,3.16,25,25,0,0,1-3.05-4.45C18.82,48.79,17.87,49.22,16.91,49.71Z"/><path class="cls-2" d="M27.86,34H20.09a31.4,31.4,0,0,0,1.82,9.47,32.81,32.81,0,0,1,5.95-1.11Z"/><path class="cls-2" d="M27.86,52.29V46.35a30.39,30.39,0,0,0-4.24.79A19.52,19.52,0,0,0,27.86,52.29Z"/><path class="cls-2" d="M27.86,23.17a34.17,34.17,0,0,1-6.44-1.27A32.87,32.87,0,0,0,20.08,30h7.78Z"/><path class="cls-3" d="M55.2,43.76h0a2.69,2.69,0,0,0,0-3.83l-.08-.08a2.7,2.7,0,0,0-1.85-.72,2.59,2.59,0,0,0-.48,0,2.7,2.7,0,0,0-1.48.75l-.81.81-1.19,1.2a2,2,0,0,1-1.4.58,2,2,0,0,1-1.39-.58l-2-2a2.86,2.86,0,0,0-1.95-.79,2.72,2.72,0,0,0-2,4.63l5.73,5.66,1.52,1.51,0,0,0,0,2.62-2.59Z"/><path class="cls-4" d="M56.05,35.69A24.94,24.94,0,0,0,56.32,32,26.19,26.19,0,0,0,30.2,5.84h-.56a26.15,26.15,0,0,0,.16,52.3h.36a26,26,0,0,0,14.69-4.53l1.61,1.6a2,2,0,0,0,1.43.55h0a2,2,0,0,0,1.43-.55l2.44-2.44,6.2-6.2a6.88,6.88,0,0,0,1.5-2.25A6.73,6.73,0,0,0,56.05,35.69Z"/><path class="cls-3" d="M47.91,51l0,0-1.52-1.51-5.73-5.66a2.72,2.72,0,0,1,2-4.63,2.86,2.86,0,0,1,1.95.79l2,2a2,2,0,0,0,1.39.58,2,2,0,0,0,1.4-.58l1.19-1.2.81-.81a2.7,2.7,0,0,1,1.48-.75,2.59,2.59,0,0,1,.48,0,2.7,2.7,0,0,1,1.85.72l.08.08a2.69,2.69,0,0,1,0,3.83h0l-4.64,4.59-2.62,2.59Z"/><path class="cls-2" d="M35.88,42.65a31.47,31.47,0,0,0-4-.42V34h8.07c0,.58-.07,1.13-.12,1.67A6.73,6.73,0,0,0,35.88,42.65Z"/><path class="cls-2" d="M38.07,22.41l.62-.17A32.37,32.37,0,0,1,39.94,30H31.87V23.26A30,30,0,0,0,38.07,22.41Z"/><path class="cls-2" d="M31.87,19.3V11.47a20,20,0,0,1,5.4,7A25.94,25.94,0,0,1,31.87,19.3Z"/><path class="cls-2" d="M43.88,35.19c0-.39.06-.78.08-1.19h8.26c0,.4-.1.78-.16,1.17a6.72,6.72,0,0,0-3.63,1.88l-.31.31-.21.23s-.21-.23-.2-.23l-.31-.31A6.72,6.72,0,0,0,43.88,35.19Z"/><path class="cls-2" d="M52.22,30H44a36.84,36.84,0,0,0-1.46-9.07,26.79,26.79,0,0,0,5-2.73A22,22,0,0,1,52.22,30Z"/><path class="cls-2" d="M41.11,17.2a24.81,24.81,0,0,0-4-6.22,22.15,22.15,0,0,1,7.54,4.3A22.67,22.67,0,0,1,41.11,17.2Z"/><path class="cls-2" d="M31.87,46.21a26.35,26.35,0,0,1,4.7.62,19.75,19.75,0,0,1-4.7,5.71Z"/><path class="cls-2" d="M37.09,53a25.28,25.28,0,0,0,3-4.22l1.9,1.9A21.93,21.93,0,0,1,37.09,53Z"/><path class="cls-2" d="M21.91,43.47A31.4,31.4,0,0,1,20.09,34h7.77v8.36A32.81,32.81,0,0,0,21.91,43.47Z"/><path class="cls-2" d="M27.86,46.35v5.94a19.52,19.52,0,0,1-4.24-5.15A30.39,30.39,0,0,1,27.86,46.35Z"/><path class="cls-2" d="M22.79,52.87a22.66,22.66,0,0,1-5.88-3.16c1-.49,1.91-.92,2.83-1.29A25,25,0,0,0,22.79,52.87Z"/><path class="cls-2" d="M20.08,30a32.87,32.87,0,0,1,1.34-8.1,34.17,34.17,0,0,0,6.44,1.27V30Z"/><path class="cls-2" d="M19.09,16.81c-1.09-.46-2.2-1-3.34-1.61a22.29,22.29,0,0,1,7-4.08A24.87,24.87,0,0,0,19.09,16.81Z"/><path class="cls-2" d="M17.64,20.54A36.92,36.92,0,0,0,16.06,30h-8a22.05,22.05,0,0,1,4.76-11.82A43,43,0,0,0,17.64,20.54Z"/><path class="cls-2" d="M16.07,34a35.76,35.76,0,0,0,2,10.77,41.58,41.58,0,0,0-4.36,2.07A22,22,0,0,1,8.1,34Z"/><path class="cls-2" d="M27.86,19.16a29.37,29.37,0,0,1-5-1,19.8,19.8,0,0,1,5-6.47Z"/></g></svg>