<svg id="icon" xmlns="http://www.w3.org/2000/svg" viewBox="0 0 64 64"><defs><style>.cls-1{fill:#0d9dda;}.cls-2{fill:#032d60;}.cls-3{fill:#fff;}</style></defs><circle class="cls-1" cx="32" cy="32" r="24"/><path class="cls-1" d="M48,36a4,4,0,0,1-4,4H40v4a4,4,0,0,1-4,4H28a4,4,0,0,1-4-4V40H20a4,4,0,0,1-4-4V28a4,4,0,0,1,4-4h4V20a4,4,0,0,1,4-4h8a4,4,0,0,1,4,4v4h4a4,4,0,0,1,4,4Z"/><circle class="cls-2" cx="32" cy="32" r="28"/><circle class="cls-1" cx="32" cy="32" r="24"/><path class="cls-2" d="M44,24H40V20a4,4,0,0,0-4-4H28a4,4,0,0,0-4,4v4H20a4,4,0,0,0-4,4v8a4,4,0,0,0,4,4h4v4a4,4,0,0,0,4,4h8a4,4,0,0,0,4-4V40h4a4,4,0,0,0,4-4V28A4,4,0,0,0,44,24Z"/><polygon class="cls-2" points="44 36 36 36 36 44 28 44 28 36 20 36 20 28 28 28 28 20 36 20 36 28 44 28 44 36"/><polygon class="cls-3" points="36 20 28 20 28 28 20 28 20 36 28 36 28 44 36 44 36 36 44 36 44 28 36 28 36 20"/></svg>