<svg xmlns="http://www.w3.org/2000/svg" viewBox="0 0 64 64"><defs><style>.cls-1{fill:none;}.cls-2{fill:#fff;}</style></defs><title>placeholder1-night</title><g id="invisi-border"><rect class="cls-1" width="64" height="64"/></g><g id="icon"><path class="cls-2" d="M55,57H9a2,2,0,0,1-2-2V22a6,6,0,0,1,6-6H51a6,6,0,0,1,6,6V55A2,2,0,0,1,55,57ZM11,53H53V22a2,2,0,0,0-2-2H13a2,2,0,0,0-2,2Z"/><path class="cls-2" d="M23,38a7,7,0,1,1,7-7A7,7,0,0,1,23,38Zm0-10a3,3,0,1,0,3,3A3,3,0,0,0,23,28Z"/><path class="cls-2" d="M41,38a7,7,0,1,1,7-7A7,7,0,0,1,41,38Zm0-10a3,3,0,1,0,3,3A3,3,0,0,0,41,28Z"/><path class="cls-2" d="M32,10a2,2,0,0,1-2-2V6a2,2,0,0,1,4,0V8A2,2,0,0,1,32,10Z"/><path class="cls-2" d="M32,48.94a12.89,12.89,0,0,1-8.88-3.53,1.94,1.94,0,1,1,2.67-2.83,9.05,9.05,0,0,0,12.43,0,1.94,1.94,0,0,1,2.67,2.83A12.9,12.9,0,0,1,32,48.94Z"/><path class="cls-2" d="M58,39H55a2,2,0,1,1,0-4h3a2,2,0,0,1,0,4Z"/><path class="cls-2" d="M9,39H6a2,2,0,0,1,0-4H9a2,2,0,0,1,0,4Z"/><path class="cls-2" d="M43.32,20a2,2,0,0,1-1.89-1.33,10,10,0,0,0-18.86,0,2,2,0,1,1-3.77-1.33,14,14,0,0,1,26.41,0A2,2,0,0,1,43.32,20Z"/></g></svg>