<svg xmlns="http://www.w3.org/2000/svg" viewBox="0 0 64 64"><defs><style>.cls-1{fill:none;}.cls-2{fill:#4c2248;}.cls-3{fill:#fff;}</style></defs><title>placeholder4-day3</title><g id="invisi-border"><rect class="cls-1" width="64" height="64"/></g><g id="icon"><circle class="cls-2" cx="31.9" cy="32" r="28"/><path class="cls-3" d="M38.13,41.63H25.67a1.14,1.14,0,0,1-1.13-1.13V38.09A1.67,1.67,0,0,0,24,36.88a11.8,11.8,0,0,1-3.89-10.2A11.9,11.9,0,1,1,39.84,36.89a1.6,1.6,0,0,0-.57,1.2V40.5A1.14,1.14,0,0,1,38.13,41.63ZM26.81,39.36H37V38.09a3.89,3.89,0,0,1,1.32-2.89,9.62,9.62,0,1,0-16-8.27,9.5,9.5,0,0,0,3.14,8.26,4,4,0,0,1,1.33,2.9Z"/><path class="cls-3" d="M38.13,47.86H25.67a1.14,1.14,0,0,1-1.13-1.13V40.5a1.14,1.14,0,0,1,1.13-1.14H38.13a1.14,1.14,0,0,1,1.14,1.14v6.23A1.14,1.14,0,0,1,38.13,47.86ZM26.81,45.59H37v-4H26.81Z"/><path class="cls-3" d="M31.9,41.06a1.14,1.14,0,0,1-1.13-1.13V34.24l-2.41-1.92a1.13,1.13,0,0,1,.2-1.9L32.2,28.6l-3.64-1.82a1.13,1.13,0,0,1-.2-1.9l2.84-2.26a1.13,1.13,0,0,1,1.41,1.77l-1.45,1.16,4.08,2a1.12,1.12,0,0,1,0,2l-4.08,2,1.45,1.16a1.14,1.14,0,0,1,.43.89v6.23A1.14,1.14,0,0,1,31.9,41.06Z"/></g></svg>