<svg xmlns="http://www.w3.org/2000/svg" viewBox="0 0 64 64"><defs><style>.cls-1{fill:none;}.cls-2{fill:#fff;}</style></defs><title>placeholder4-night</title><g id="invisi-border"><rect class="cls-1" width="64" height="64"/></g><g id="icon"><path class="cls-2" d="M43,49H21a2,2,0,0,1-2-2V42.75a2.91,2.91,0,0,0-1-2.13,20.84,20.84,0,0,1-6.86-18A21,21,0,1,1,46,40.63a2.9,2.9,0,0,0-1,2.12V47A2,2,0,0,1,43,49ZM23,45H41V42.75a6.87,6.87,0,0,1,2.34-5.1,17,17,0,0,0,0-25.33A16.83,16.83,0,0,0,30,8.11,17,17,0,0,0,15.11,23a16.86,16.86,0,0,0,5.55,14.6A6.91,6.91,0,0,1,23,42.75Z"/><path class="cls-2" d="M43,60H21a2,2,0,0,1-2-2V47a2,2,0,0,1,2-2H43a2,2,0,0,1,2,2V58A2,2,0,0,1,43,60ZM23,56H41V49H23Z"/><path class="cls-2" d="M32,48a2,2,0,0,1-2-2V36l-4.25-3.4a2,2,0,0,1,.36-3.35L32.53,26l-6.42-3.21a2,2,0,0,1-.36-3.35l5-4a2,2,0,0,1,2.5,3.12l-2.56,2.05,7.2,3.6a2,2,0,0,1,0,3.58l-7.2,3.6,2.56,2A2,2,0,0,1,34,35V46A2,2,0,0,1,32,48Z"/></g></svg>