<svg xmlns="http://www.w3.org/2000/svg" viewBox="0 0 64 64"><defs><style>.cls-1{fill:none;}.cls-2{fill:#fff;}</style></defs><title>placeholder3-night</title><g id="invisi-border"><rect class="cls-1" width="64" height="64"/></g><g id="icon"><path class="cls-2" d="M31.99056,57.08256A24.99992,24.99992,0,1,1,56.99047,32.08264,25.02847,25.02847,0,0,1,31.99056,57.08256Zm0-45.99977A20.99985,20.99985,0,1,0,52.99041,32.08264,21.02335,21.02335,0,0,0,31.99056,11.08279Z"/><path class="cls-2" d="M31.99056,38.9847A10.86158,10.86158,0,1,1,42.85188,28.12288,10.874,10.874,0,0,1,31.99056,38.9847Zm0-17.72315a6.86158,6.86158,0,1,0,6.86132,6.86133A6.86929,6.86929,0,0,0,31.99056,21.26155Z"/><path class="cls-2" d="M31.99056,57.08264c-9.07911,0-13.29444-4.45361-13.46973-4.64355a1.99974,1.99974,0,0,1-.53027-1.35645V49.06409a14,14,0,0,1,28,0v2.01855a1.99975,1.99975,0,0,1-.53028,1.35645C45.285,52.629,41.06966,57.08264,31.99056,57.08264Zm-10-6.895c1.18017.92285,4.36279,2.895,10,2.895,5.58837,0,8.81054-1.98535,10-2.90234V49.06409a10,10,0,0,0-20,0Zm22,.895h0Z"/><path class="cls-2" d="M54.67806,36.08264a1.99272,1.99272,0,0,1-1.41407-.58593l-5-5a1.99979,1.99979,0,0,1,2.82813-2.82813L54.67806,31.254,58.264,27.66858a1.99979,1.99979,0,0,1,2.82813,2.82813l-5,5A1.99272,1.99272,0,0,1,54.67806,36.08264Z"/></g></svg>