<svg xmlns="http://www.w3.org/2000/svg" viewBox="0 0 64 64"><defs><style>.cls-1{fill:none;}.cls-2{fill:#032e61;}</style></defs><title>placeholder2-day2</title><g id="invisi-border"><rect class="cls-1" width="64" height="64"/></g><g id="icon"><path class="cls-2" d="M32,41A10,10,0,0,1,22,31V17a10,10,0,0,1,20,0V31A10,10,0,0,1,32,41Zm0-30a6,6,0,0,0-6,6V31a6,6,0,0,0,12,0V17A6,6,0,0,0,32,11Z"/><path class="cls-2" d="M39,57H25a2,2,0,1,1,0-4H39a2,2,0,1,1,0,4Z"/><path class="cls-2" d="M32,57a2,2,0,0,1-2-2V47a2,2,0,0,1,4,0v8A2,2,0,0,1,32,57Z"/><path class="cls-2" d="M32,33a2,2,0,0,1-2-2V17a2,2,0,0,1,4,0V31A2,2,0,0,1,32,33Z"/><path class="cls-2" d="M32,48.83A17.91,17.91,0,0,1,14.11,30.94V29a1.89,1.89,0,0,1,3.77,0v1.94a14.11,14.11,0,0,0,28.23,0V29a1.89,1.89,0,1,1,3.77,0v1.94A17.91,17.91,0,0,1,32,48.83Z"/></g></svg>