<svg xmlns="http://www.w3.org/2000/svg" viewBox="0 0 64 64"><defs><style>.cls-1{fill:none;}.cls-2{fill:#032e61;}.cls-3{fill:#fff;}</style></defs><title>placeholder3-day3</title><g id="invisi-border"><rect class="cls-1" width="64" height="64"/></g><g id="icon"><circle class="cls-2" cx="32.00586" cy="31.99414" r="28"/><path class="cls-3" d="M32.06877,45.65661A13.66246,13.66246,0,1,1,45.73122,31.99416,13.67805,13.67805,0,0,1,32.06877,45.65661Zm0-25.13887A11.47642,11.47642,0,1,0,43.54519,31.99416,11.48926,11.48926,0,0,0,32.06877,20.51774Z"/><path class="cls-3" d="M32.06877,35.76613a5.93585,5.93585,0,1,1,5.93571-5.936A5.94263,5.94263,0,0,1,32.06877,35.76613Zm0-9.6857a3.74985,3.74985,0,1,0,3.74971,3.74972A3.75407,3.75407,0,0,0,32.06877,26.08043Z"/><path class="cls-3" d="M32.06877,45.65666c-4.96173,0-7.26541-2.4339-7.36121-2.5377a1.09286,1.09286,0,0,1-.28979-.7413V41.27452a7.651,7.651,0,1,1,15.302,0v1.10314a1.09287,1.09287,0,0,1-.2898.7413C39.33418,43.22276,37.0305,45.65666,32.06877,45.65666Zm-5.465-3.76813a8.76316,8.76316,0,0,0,5.465,1.58213,8.86223,8.86223,0,0,0,5.465-1.58613v-.61a5.465,5.465,0,1,0-10.93,0Zm12.023.48913h0Z"/><path class="cls-3" d="M44.46749,34.18016a1.089,1.089,0,0,1-.77279-.32022l-2.7325-2.7325a1.09288,1.09288,0,0,1,1.54557-1.54557l1.95972,1.95945,1.95971-1.95945a1.09288,1.09288,0,0,1,1.54557,1.54557l-2.7325,2.7325A1.089,1.089,0,0,1,44.46749,34.18016Z"/></g></svg>