<svg xmlns="http://www.w3.org/2000/svg" viewBox="0 0 64 64"><defs><style>.cls-1{fill:none;}.cls-2{fill:#032e61;}.cls-3{fill:#fff;}</style></defs><title>platform-day3</title><g id="invisi-border"><rect class="cls-1" width="64" height="64"/></g><g id="icon"><circle class="cls-2" cx="32" cy="32" r="28"/><path class="cls-3" d="M41.74,27.16a1.09,1.09,0,0,0-1-.63H36.42l3.69-8.31a1.09,1.09,0,0,0-1-1.54h-12A1.09,1.09,0,0,0,26,17.5L22.19,31.72a1.09,1.09,0,0,0,1.06,1.38h4.09L24.37,46a1.09,1.09,0,0,0,1.91.94L41.59,28.32A1.1,1.1,0,0,0,41.74,27.16ZM27.55,41.93l2.24-9.69a1.09,1.09,0,0,0-1.07-1.34h-4l3.24-12h9.51l-3.69,8.31a1.09,1.09,0,0,0,1,1.54h3.7Z"/><path class="cls-3" d="M30.65,20.55a1.09,1.09,0,0,0-1.34.77l-1.64,6a1.09,1.09,0,0,0,.77,1.34,1.08,1.08,0,0,0,.29,0,1.09,1.09,0,0,0,1.05-.81l1.64-6A1.09,1.09,0,0,0,30.65,20.55Z"/></g></svg>