<svg xmlns="http://www.w3.org/2000/svg" viewBox="0 0 64 64"><defs><style>.cls-1{fill:none;}.cls-2{fill:#fff;}</style></defs><title>mittlestand-night</title><g id="invisi-border"><rect class="cls-1" width="64" height="64"/></g><g id="icon"><path class="cls-2" d="M40,38a2,2,0,0,1-2-2V30a2,2,0,0,1,4,0v6A2,2,0,0,1,40,38Z"/><path class="cls-2" d="M19,25a2,2,0,0,1-2-2V17a2,2,0,0,1,4,0v6A2,2,0,0,1,19,25Z"/><path class="cls-2" d="M19,38a2,2,0,0,1-2-2V30a2,2,0,0,1,4,0v6A2,2,0,0,1,19,38Z"/><path class="cls-2" d="M40,58H9a2,2,0,0,1-2-2V9A2,2,0,0,1,9,7H33a2,2,0,0,1,2,2v6H55a2,2,0,0,1,2,2V44a2,2,0,0,1-2,2H42V56A2,2,0,0,1,40,58ZM11,54H38V44a2,2,0,0,1,2-2H53V19H33a2,2,0,0,1-2-2V11H11Z"/><path class="cls-2" d="M31,56H27V17a2,2,0,0,1,2-2h4v4H31Z"/><path class="cls-2" d="M55,58a2,2,0,0,1-2-2V44a2,2,0,0,1,4,0V56A2,2,0,0,1,55,58Z"/></g></svg>