<svg xmlns="http://www.w3.org/2000/svg" viewBox="0 0 64 64"><defs><style>.cls-1{fill:none;}.cls-2{fill:#032e61;}.cls-3{fill:#fff;}</style></defs><title>mittlestand-day3</title><g id="invisi-border"><rect class="cls-1" width="64" height="64"/></g><g id="icon"><circle class="cls-2" cx="32" cy="32" r="28"/><path class="cls-3" d="M36.37,35.51a1.09,1.09,0,0,1-1.09-1.09V31.13a1.09,1.09,0,0,1,2.19,0v3.28A1.09,1.09,0,0,1,36.37,35.51Z"/><path class="cls-3" d="M24.9,28.4a1.09,1.09,0,0,1-1.09-1.09V24A1.09,1.09,0,1,1,26,24v3.28A1.09,1.09,0,0,1,24.9,28.4Z"/><path class="cls-3" d="M24.9,35.51a1.09,1.09,0,0,1-1.09-1.09V31.13a1.09,1.09,0,1,1,2.19,0v3.28A1.09,1.09,0,0,1,24.9,35.51Z"/><path class="cls-3" d="M36.37,46.44H19.43a1.09,1.09,0,0,1-1.09-1.09V19.66a1.09,1.09,0,0,1,1.09-1.09H32.55a1.09,1.09,0,0,1,1.09,1.09v3.28H44.57A1.09,1.09,0,0,1,45.66,24V38.79a1.09,1.09,0,0,1-1.09,1.09h-7.1v5.46A1.09,1.09,0,0,1,36.37,46.44ZM20.52,44.25H35.28V38.79a1.09,1.09,0,0,1,1.09-1.09h7.1V25.12H32.55A1.09,1.09,0,0,1,31.45,24V20.75H20.52Z"/><path class="cls-3" d="M31.45,45.34H29.27V24a1.09,1.09,0,0,1,1.09-1.09h2.19v2.19H31.45Z"/><path class="cls-3" d="M44.57,46.44a1.09,1.09,0,0,1-1.09-1.09V38.79a1.09,1.09,0,1,1,2.19,0v6.56A1.09,1.09,0,0,1,44.57,46.44Z"/></g></svg>