<svg xmlns="http://www.w3.org/2000/svg" viewBox="0 0 64 64"><defs><style>.cls-1{fill:none;}.cls-2{fill:#032e61;}.cls-3{fill:#fff;}</style></defs><title>smb-day3</title><g id="invisi-border"><rect class="cls-1" width="64" height="64"/></g><g id="icon"><circle class="cls-2" cx="32" cy="32" r="28"/><path class="cls-3" d="M35.22,44.48H21.56a1.09,1.09,0,0,1-1.09-1.09V31.08a1.09,1.09,0,1,1,2.19,0V42.3H34.13V31.08a1.09,1.09,0,0,1,2.19,0V43.39A1.09,1.09,0,0,1,35.22,44.48Z"/><path class="cls-3" d="M42.33,44.48a1.09,1.09,0,0,1-1.09-1.09V31.91a1.09,1.09,0,0,1,2.19,0V43.39A1.09,1.09,0,0,1,42.33,44.48Z"/><path class="cls-3" d="M30.31,37.33H26.5a1,1,0,0,1,0-2.08h3.81a1,1,0,0,1,0,2.08Z"/><path class="cls-3" d="M28.39,31.9a5.67,5.67,0,0,1-3.56-1.27,5.7,5.7,0,0,1-3.56,1.22,5.46,5.46,0,0,1-4.35-2,1,1,0,0,1-.16-1l3.17-8.74a1,1,0,0,1,1-.68H42.77a1,1,0,0,1,1,.66l3.38,8.74a1,1,0,0,1-.23,1.11,5.83,5.83,0,0,1-4.29,1.94,5.5,5.5,0,0,1-3.54-1.28,5.31,5.31,0,0,1-3.56,1.28,6,6,0,0,1-3.58-1.17,5.71,5.71,0,0,1-3.52,1.21Zm-3.55-3.76h0a1,1,0,0,1,.8.39,3.55,3.55,0,0,0,2.74,1.3h0a3.42,3.42,0,0,0,2.72-1.26,1,1,0,0,1,1.74.11,3.31,3.31,0,0,0,2.65,1.11,3.59,3.59,0,0,0,2.81-1.33,1,1,0,0,1,1.48,0,3.79,3.79,0,0,0,2.82,1.34,3.48,3.48,0,0,0,2.33-.89l-2.87-7.42H21.63l-2.71,7.47a3.45,3.45,0,0,0,2.34.84A3.56,3.56,0,0,0,24,28.52,1,1,0,0,1,24.84,28.14Z"/></g></svg>