<svg xmlns="http://www.w3.org/2000/svg" viewBox="0 0 64 64"><defs><style>.cls-1{fill:none;}.cls-2{fill:#032e61;}</style></defs><title>smb-day2</title><g id="invisi-border"><rect class="cls-1" width="64" height="64"/></g><g id="icon"><path class="cls-2" d="M38,55H13a2,2,0,0,1-2-2V30.47a2,2,0,0,1,4,0V51H36V30.47a2,2,0,0,1,4,0V53A2,2,0,0,1,38,55Z"/><path class="cls-2" d="M51,55a2,2,0,0,1-2-2V32a2,2,0,0,1,4,0V53A2,2,0,0,1,51,55Z"/><path class="cls-2" d="M29,41.9H22a1.9,1.9,0,1,1,0-3.8h7a1.9,1.9,0,0,1,0,3.8Z"/><path class="cls-2" d="M25.49,32A10.38,10.38,0,0,1,19,29.66a10.43,10.43,0,0,1-6.52,2.24,10,10,0,0,1-8-3.73,1.9,1.9,0,0,1-.29-1.82l5.81-16A1.9,1.9,0,0,1,11.81,9.1h40a1.9,1.9,0,0,1,1.77,1.21l6.19,16a1.9,1.9,0,0,1-.43,2A10.67,10.67,0,0,1,51.5,31.9,10.06,10.06,0,0,1,45,29.56,9.72,9.72,0,0,1,38.5,31.9a11.06,11.06,0,0,1-6.56-2.14A10.45,10.45,0,0,1,25.5,32ZM19,25.1h0a1.9,1.9,0,0,1,1.47.71,6.5,6.5,0,0,0,5,2.38h0a6.25,6.25,0,0,0,5-2.31,1.9,1.9,0,0,1,3.18.2c.63,1.12,2.81,2,4.85,2s3.41-.66,5.14-2.43A1.9,1.9,0,0,1,45,25.1a1.85,1.85,0,0,1,1.35.56A6.94,6.94,0,0,0,51.5,28.1a6.37,6.37,0,0,0,4.26-1.62L50.5,12.9H13.14l-5,13.66a6.31,6.31,0,0,0,4.29,1.54,6.52,6.52,0,0,0,5.07-2.31A1.9,1.9,0,0,1,19,25.1Z"/></g></svg>