<svg viewBox="0 0 33 33" xmlns="http://www.w3.org/2000/svg" xmlns:xlink="http://www.w3.org/1999/xlink"><mask id="a" fill="#fff"><path d="m17.49.757 3.165 10.31c.138.412.55.618.964.618h10.321c1.033 0 1.446 1.375.62 1.994l-8.397 6.185c-.344.275-.48.756-.344 1.169l3.992 10.585c.275.962-.757 1.787-1.583 1.168l-9.015-6.736c-.344-.275-.826-.275-1.239 0l-9.084 6.736c-.826.619-1.927-.206-1.582-1.168l3.853-10.585a1.08 1.08 0 0 0 -.344-1.169l-8.395-6.184c-.826-.619-.344-1.994.62-1.994h10.323c.481 0 .825-.137.963-.618l3.235-10.38c.275-.962 1.651-.893 1.927.069" fill="#fff" fill-rule="evenodd"/></mask><g fill="#e67300" fill-rule="evenodd" mask="url(#a)"><path d="m0 0h33v33h-33z"/></g></svg>