<svg xmlns="http://www.w3.org/2000/svg" viewBox="0 0 64 64"><defs><style>.cls-1{fill:none;}.cls-2{fill:#4c2248;}.cls-3{fill:#fff;}</style></defs><title>retail-day3</title><g id="invisi-border"><rect class="cls-1" width="64" height="64"/></g><g id="icon"><circle class="cls-2" cx="32" cy="32" r="28"/><path class="cls-3" d="M42.39,22.59H39.66V20.41a5.46,5.46,0,0,0-7.66-5,5.46,5.46,0,0,0-7.66,5v2.19H21.61a1.09,1.09,0,0,0-1.09,1.09V44.47a1.09,1.09,0,0,0,1.09,1.09H42.39a1.09,1.09,0,0,0,1.09-1.09V23.69A1.09,1.09,0,0,0,42.39,22.59Zm-4.92-2.19v2.19H35.28V20.41a5.42,5.42,0,0,0-1.12-3.28h0A3.28,3.28,0,0,1,37.47,20.41Zm-6.56,2.19V20.41A3.26,3.26,0,0,1,32,18a3.26,3.26,0,0,1,1.09,2.43v2.19Zm-4.37-2.19a3.28,3.28,0,0,1,3.28-3.28h0a5.42,5.42,0,0,0-1.12,3.28v2.19H26.53Zm14.77,23H22.7V24.78H41.3Z"/><path class="cls-3" d="M37.47,30.25H26.53a1.09,1.09,0,0,0,0,2.19H37.47a1.09,1.09,0,0,0,0-2.19Z"/><path class="cls-3" d="M35.83,34.63H28.17a1.09,1.09,0,0,0,0,2.19h7.66a1.09,1.09,0,0,0,0-2.19Z"/></g></svg>