<svg xmlns="http://www.w3.org/2000/svg" viewBox="0 0 64 64"><defs><style>.cls-1{fill:none;}.cls-2{fill:#00857d;}.cls-3{fill:#fff;}</style></defs><title>sales-day3</title><g id="invisi-border"><rect class="cls-1" width="64" height="64"/></g><g id="icon"><circle class="cls-2" cx="32" cy="32" r="28"/><path class="cls-3" d="M44.58,18.33H19.42a1.09,1.09,0,0,0-1.09,1.09V44.58a1.09,1.09,0,0,0,1.09,1.09H44.58a1.09,1.09,0,0,0,1.09-1.09V19.42A1.09,1.09,0,0,0,44.58,18.33ZM43.48,43.48H39.66V40.2a1.09,1.09,0,1,0-2.19,0v3.28H33.09V40.2a1.09,1.09,0,0,0-2.19,0v3.28H26.53V40.2a1.09,1.09,0,1,0-2.19,0v3.28H20.52v-7.2l4.93-4.93,3.63,3.58a1.09,1.09,0,0,0,1.54,0l6.85-6.85v5a1.09,1.09,0,1,0,2.19,0V25.44a1.09,1.09,0,0,0-1.09-1.09H30.91a1.09,1.09,0,1,0,0,2.19h5l-6.08,6.08L26.2,29a1.09,1.09,0,0,0-1.54,0l-4.15,4.15V20.52h23Z"/></g></svg>