<svg xmlns="http://www.w3.org/2000/svg" viewBox="0 0 64 64"><defs><style>.cls-1{fill:none;}.cls-2{fill:#812244;}.cls-3{fill:#fff;}</style></defs><title>service-day3</title><g id="invisi-border"><rect class="cls-1" width="64" height="64"/></g><g id="icon"><circle class="cls-2" cx="32" cy="32" r="28"/><path class="cls-3" d="M45,23.09l-.77.77.77-.77a7.79,7.79,0,0,0-11,0l-2,2-2-2a7.8,7.8,0,0,0-11,11L31.23,46.37a1.09,1.09,0,0,0,1.55,0L45,34.12A7.8,7.8,0,0,0,45,23.09Zm-1.55,9.48L32,44.05,20.52,32.57a5.61,5.61,0,1,1,7.93-7.93l2.78,2.78a1.09,1.09,0,0,0,1.55,0l2.78-2.78a5.74,5.74,0,0,1,7.93,0,5.61,5.61,0,0,1,0,7.93Z"/><path class="cls-3" d="M24.89,25.18A3.83,3.83,0,0,0,21.06,29a1.09,1.09,0,0,0,2.19,0,1.64,1.64,0,0,1,1.64-1.64,1.09,1.09,0,0,0,0-2.19Z"/></g></svg>