<svg xmlns="http://www.w3.org/2000/svg" viewBox="0 0 64 64"><defs><style>.cls-1{fill:none;}.cls-2{fill:#fcac63;}.cls-3{fill:#fff;}.cls-4{fill:#ce6200;}</style></defs><title>social-studio-day</title><g id="invisi-border"><rect class="cls-1" width="64" height="64"/></g><g id="icon"><rect class="cls-2" x="9" y="9" width="46" height="46"/><circle class="cls-3" cx="32" cy="28" r="10"/><path class="cls-4" d="M32,40A12,12,0,1,1,44,28,12,12,0,0,1,32,40Zm0-20a8,8,0,1,0,8,8A8,8,0,0,0,32,20Z"/><path class="cls-3" d="M19,51a13,13,0,0,1,26,0v4H19Z"/><path class="cls-4" d="M45,57H19a2,2,0,0,1-2-2V51a15,15,0,0,1,30,0v4A2,2,0,0,1,45,57ZM21,53H43V51a11,11,0,0,0-22,0Z"/><path class="cls-4" d="M55,57H9a2,2,0,0,1-2-2V9A2,2,0,0,1,9,7H55a2,2,0,0,1,2,2V55A2,2,0,0,1,55,57ZM11,53H53V11H11Z"/></g></svg>