<svg xmlns="http://www.w3.org/2000/svg" viewBox="0 0 64 64"><defs><style>.cls-1{fill:none;}.cls-2{fill:#fff;}</style></defs><title>social-studio-night</title><g id="invisi-border"><rect class="cls-1" width="64" height="64"/></g><g id="icon"><path class="cls-2" d="M55,57H9a2,2,0,0,1-2-2V9A2,2,0,0,1,9,7H55a2,2,0,0,1,2,2V55A2,2,0,0,1,55,57ZM11,53H53V11H11Z"/><path class="cls-2" d="M32,40A12,12,0,1,1,44,28,12,12,0,0,1,32,40Zm0-20a8,8,0,1,0,8,8A8,8,0,0,0,32,20Z"/><path class="cls-2" d="M47,57H17V51a15,15,0,0,1,30,0ZM21,53H43V51a11,11,0,0,0-22,0Z"/></g></svg>