<svg xmlns="http://www.w3.org/2000/svg" viewBox="0 0 64 64"><defs><style>.cls-1{fill:none;}.cls-2{fill:#e67300;}.cls-3{fill:#fff;}</style></defs><title>social-studio-day3</title><g id="invisi-border"><rect class="cls-1" width="64" height="64"/></g><g id="icon"><circle class="cls-2" cx="32" cy="32" r="28"/><path class="cls-3" d="M44.58,18.33H19.42a1.09,1.09,0,0,0-1.09,1.09V44.58a1.09,1.09,0,0,0,1.09,1.09H44.58a1.09,1.09,0,0,0,1.09-1.09V19.42A1.09,1.09,0,0,0,44.58,18.33ZM26,43.48V42.39a6,6,0,1,1,12,0v1.09Zm1.64-13.67A4.38,4.38,0,1,1,32,34.19,4.38,4.38,0,0,1,27.63,29.81ZM43.48,43.48H40.2V42.39a8.18,8.18,0,0,0-4.42-7.23,6.56,6.56,0,1,0-7.57,0,8.18,8.18,0,0,0-4.42,7.23v1.09H20.52v-23h23Z"/></g></svg>