<svg id="icon" xmlns="http://www.w3.org/2000/svg" viewBox="0 0 64 64"><defs><style>.cls-1{fill:#fff;}.cls-2{fill:#00a0df;}.cls-3{fill:#002169;}</style></defs><title>ai-fullcolor</title><ellipse class="cls-1" cx="32.00823" cy="43.20093" rx="12.90272" ry="10.7049"/><path class="cls-2" d="M28.08625,49.826l1.69258.85892.98523-.15157,1.69257-.8084,1.16207-.20209,2.90516.83365.73261,1.31364L36.7007,53.2869l-2.19782.7326s-3.30936.75787-3.76408.75787-2.70307.15158-2.90517.10105-1.97046-.55577-1.97046-.55577L23.918,52.85744l-.70734-1.51574,1.01049-1.49047,1.61679-.53051Z"/><path class="cls-2" d="M25.25688,6.65269a64.79223,64.79223,0,0,1-1.7431,12.65642c-3.63777-3.18305-9.57441.12631-9.57441.12631,4.24406-.98523,6.01242.55577,6.01242.55577a9.41093,9.41093,0,0,0-6.21452,1.36416,9.29618,9.29618,0,0,1,4.77457,3.183C7.67432,24.91734,6.91645,35.37593,6.91645,35.37593a6.46517,6.46517,0,0,1,4.24406-.6063c-1.21259,1.28838-1.061,2.04625-1.061,2.04625,4.54721-.90944,5.45665.15157,5.45665.15157-5.7598,2.42518-4.57247,6.23979-4.57247,6.23979.75787-1.71784,1.38942-1.7431,1.38942-1.7431-1.44,2.72833-.60629,4.21881-.60629,4.21881,3.10726-2.80412,3.86506-3.33467,3.86506-3.33467-2.698,3.06362-2.17752,5.299-2.223,5.93668,3.05656-5.27974,7.57869-3.73882,7.57869-3.73882-.07579-3.46093.9347-5.00193.9347-5.00193,3.4862-4.623,5.91138-3.86513,5.91138-3.86513a12.37665,12.37665,0,0,0,6.51767,1.51573C31.31983,35.67908,32.684,33.936,32.684,33.936c5.00194.53051,7.57869,6.44188,7.57869,6.44188.83366.07579,1.66731-2.42518,1.66731-2.42518.98523,2.122.63156,5.83559.63156,5.83559a7.02567,7.02567,0,0,1,.12631,3.86514l1.51574.37893,6.59346-3.10726,4.24407.96a26.37252,26.37252,0,0,0-3.03148-4.143,14.34283,14.34283,0,0,1,4.31985,3.41041,10.36058,10.36058,0,0,0-3.35988-7.85658c1.99572-.07578,3.94092,3.38515,3.94092,3.38515a6.72541,6.72541,0,0,0-5.12825-6.21452c.85892-1.36417,3.63777-.25263,3.63777-.25263.98523-6.29031-5.83559-10.13018-5.83559-10.13018,2.72833-.37893,3.63777.22736,3.63777.22736-2.80411-11.21646-15.15738-7.5029-15.15738-7.5029a7.90313,7.90313,0,0,0-5.00193-7.80605c-.15158,1.43995-.37894,3.78934-.37894,3.78934a8.2335,8.2335,0,0,0-4.54721-6.745C30.00619,14.93873,25.25688,6.65269,25.25688,6.65269Z"/><path class="cls-3" d="M27.55445,42.075s.43675-2.03316-2.38064-2.02044c-2.05422.1272-2.36034.98332-2.404,1.79346a1.466,1.466,0,0,0,.90409,1.45734S25.868,41.703,27.55445,42.075Z"/><path class="cls-3" d="M26.8666,45.63936c-.06891.90276-.61268,1.59746-1.21459,1.55152s-1.03393-.81514-.965-1.7179.61268-1.59749,1.21459-1.55154S26.93552,44.73647,26.8666,45.63936Z"/><path class="cls-3" d="M37.16866,45.80829c-.06891.90276-.61268,1.59746-1.21459,1.55152s-1.03393-.81514-.965-1.71789.61269-1.5975,1.21459-1.55155S37.23758,44.9054,37.16866,45.80829Z"/><path class="cls-3" d="M34.56533,42.62009s2.48091-.00451,3.59186,1.20932a1.87073,1.87073,0,0,0,.11606-2.72025A12.487,12.487,0,0,0,36.193,40.4557c-.594-.03624-2.5717-.56482-2.39441,2.0662Z"/><path class="cls-3" d="M38.372,53.90938a1.83551,1.83551,0,0,1-.30835-3.64458,8.557,8.557,0,0,0,1.24414-.2689,7.55572,7.55572,0,0,0,3.95291-3.11572,1.83651,1.83651,0,1,1,3.09421,1.97914A11.312,11.312,0,0,1,40.54475,53.454a10.68361,10.68361,0,0,1-1.86083.42845A1.86426,1.86426,0,0,1,38.372,53.90938Z"/><path class="cls-3" d="M43.37184,44.53173a.91945.91945,0,0,1-.21333-.0251c-.48044-.11832-.55932-.13983-1.46823-3.87941a1.89471,1.89471,0,0,1-1.16525.891,1.24437,1.24437,0,0,1-1.185-.39977.92591.92591,0,0,1-.1721-.31731,7.80076,7.80076,0,0,0-5.35661-5.44982,10.96593,10.96593,0,0,0,1.34991.934c.15059.09143.25636.15956.30117.19362a.915.915,0,0,1,.3209,1.00929,1.51261,1.51261,0,0,1-.9089.89635c-1.31943.53423-3.68043-.08605-7.20489-1.91819a5.3336,5.3336,0,0,0-1.64749.29042,5.923,5.923,0,0,0-4.765,4.6682.92865.92865,0,0,1-1.01825.79955.91749.91749,0,0,1-.80493-1.01109,7.68178,7.68178,0,0,1,6.09341-6.22427,6.70251,6.70251,0,0,1,2.39864-.355.89338.89338,0,0,1,.40157.10577,22.95383,22.95383,0,0,0,3.99594,1.73176,2.38415,2.38415,0,0,1-.87484-2.1638c.05736-.25994.30476-.86588,1.35528-.90711a9.07838,9.07838,0,0,1,7.6674,5.647,12.52875,12.52875,0,0,0,.58622-1.58475.91546.91546,0,0,1,.87663-.64716c.72426,0,.735.043,1.27462,2.28032.23126.96089.52347,2.17455.73859,3.06194.08784-.0502.17389-.09681.251-.13445a.918.918,0,1,1,.79955,1.65287,7.94022,7.94022,0,0,0-.82286.50913A1.4564,1.4564,0,0,1,43.37184,44.53173Z"/><path class="cls-3" d="M30.36218,51.03029c-.05378,0-.10757-.00179-.16135-.00359a2.9912,2.9912,0,0,1-1.72817-.61848,1.82088,1.82088,0,0,1-.7368-1.48974,2.29579,2.29579,0,0,1,.432-1.237.45871.45871,0,0,1,.692.60234,1.44816,1.44816,0,0,0-.20616.67585.93394.93394,0,0,0,.3926.73322,2.101,2.101,0,0,0,1.19753.41591c.8838.03585,1.66363-.41591,1.68873-.99854a1.44346,1.44346,0,0,0-.12011-.60773.45968.45968,0,0,1,.78162-.484,2.29476,2.29476,0,0,1,.25635,1.133A2.26328,2.26328,0,0,1,30.36218,51.03029Z"/><path class="cls-3" d="M30.24027,57a.97828.97828,0,0,1-.21512-.0251.9121.9121,0,0,1-.62745-.53064L29.041,55.616c-.095.21513-.19.432-.27787.63641a.912.912,0,0,1-.94834.554,2.57555,2.57555,0,0,1-1.8931-1.68515c-.06633.1237-.13086.24919-.19361.37289a.917.917,0,0,1-1.12223.45893,1.43876,1.43876,0,0,1-.9591-1.28.91027.91027,0,0,1-.96985.31551.92066.92066,0,0,1-.6651-.79775c-.22588-2.43449.31731-4.17521,1.61523-5.17554a4.88769,4.88769,0,0,1,4.5714-.47148c.30118.05557.1828.34388.3047.62533s.33709.48077.17037.73892c.009.12369.45535.47865,1.26027.50912.81927.04661,1.27744-.0751,1.35453-.206,0-.009.17059-.06831.18942-.15156.048-.21322.15731-.08347.24627-.36.048-.14879.28706-.61013.43586-.64419a4.83121,4.83121,0,0,1,6.19784,2.13617,4.63071,4.63071,0,0,1,.98061,3.62306.92408.92408,0,0,1-.60234.69916c-.41233.14341-.59339.14341-1.55966-.63641l-.061.72783a.91785.91785,0,0,1-.7368.82286.908.908,0,0,1-.995-.48224l-.07171-.13983a5.872,5.872,0,0,1-.52347.73142.916.916,0,0,1-1.583-.3675c-.06992.11652-.11474.18823-.1237.199l-.00538-.00359a.89736.89736,0,0,1-.2707.27966.91876.91876,0,0,1-1.39651-.60414,2.51412,2.51412,0,0,1-.58263.74756A.9197.9197,0,0,1,30.24027,57Zm8.19267-2.352h0ZM26.20848,52.2332a1.08692,1.08692,0,0,1,.45355.10756.92312.92312,0,0,1,.51809.66868,5.96976,5.96976,0,0,0,.41591,1.332c.71529-1.565.98778-1.75148,1.51663-1.76223a.98849.98849,0,0,1,.85871.55574l.3191.73859c.02151-.07171.043-.14879.06454-.22767a1.08813,1.08813,0,0,1,1.16167-.78341,1.76838,1.76838,0,0,1,.83719.84974,3.19055,3.19055,0,0,0,.09143-.31193.91812.91812,0,0,1,1.6224-.3442c.0251.03406.09322.12549.18106.25994a.91714.91714,0,0,1,.69737-.73142.901.901,0,0,1,.62565.07887.916.916,0,0,1,.48762-.47148.92589.92589,0,0,1,.7852.03944l-.02151-.03227a.23309.23309,0,0,1-.01793-.02689h0c-.15955-.25456-1.67072-2.3968-3.94433-2.16944-.32841.68208-1.554,1.16711-2.98095,1.11154a2.24241,2.24241,0,0,1-1.9452-.88418c.02526,0-.75787-.12631-1.1113-.14821a2.7269,2.7269,0,0,0-2.076.38722,2.26517,2.26517,0,0,0-.75114,1.17243,2.66743,2.66743,0,0,1,.64179-.37288.91725.91725,0,0,1,1.228,1.01109.09009.09009,0,0,0-.00358.02151A.92919.92919,0,0,1,26.20848,52.2332Z"/><path class="cls-3" d="M58.80522,40.49277c-2.1853-5.60938-5.29206-6.48243-6.52544-6.599a.91832.91832,0,0,0-.1721,1.82856c.69915.06453,3.12289.64895,4.9873,5.43727a.91842.91842,0,0,0,.85512.58442.90845.90845,0,0,0,.33345-.06274A.91789.91789,0,0,0,58.80522,40.49277Z"/><path class="cls-3" d="M53.246,37.34836a.91434.91434,0,0,0-1.16525.53781.92425.92425,0,0,0,.52526,1.18139c.09143.03765,1.84111.77625,2.43449,3.84536a9.6465,9.6465,0,0,0-2.60838-1.83215.88569.88569,0,0,0-1.10431.597.94009.94009,0,0,0,.57187,1.15988A12.33427,12.33427,0,0,1,55.2718,45.887a.91828.91828,0,0,0,.87484.64179,1.00795,1.00795,0,0,0,.12549-.009.91933.91933,0,0,0,.79238-.88022C57.27246,38.89188,53.411,37.40752,53.246,37.34836Z"/><path class="cls-3" d="M16.16751,43.56905a6.37061,6.37061,0,0,0-2.95976,4.53375A.91838.91838,0,0,0,14.00192,49.13a.87317.87317,0,0,0,.11832.00717.91921.91921,0,0,0,.9089-.80134,4.4979,4.4979,0,0,1,2.03831-3.16771.91747.91747,0,1,0-.89994-1.59909Z"/><path class="cls-3" d="M16.07429,43.40412a.91782.91782,0,1,0-.882-1.60985A15.62164,15.62164,0,0,0,13.534,42.87886c.07708-.10039.12549-.156.12907-.15955a.9179.9179,0,0,0-1.36783-1.22442,6.25685,6.25685,0,0,0-1.55069,4.70047.91587.91587,0,0,0,.71529.74039.95882.95882,0,0,0,.18823.01972.919.919,0,0,0,.76548-.41053A12.2161,12.2161,0,0,1,16.07429,43.40412Z"/><path class="cls-3" d="M19.14878,21.54566a.92691.92691,0,0,0,1.04873-.76549.91768.91768,0,0,0-.76548-1.04873c-4.16266-.65792-6.31033,1.11506-6.39638,1.19215a.91456.91456,0,0,0-.25635,1.038.845.845,0,0,0,.90173.57545,4.12248,4.12248,0,0,1,1.93321.38241c-3.286.56683-8.77709,2.91382-10.45215,12.111a1.83252,1.83252,0,0,0,1.47719,2.13332,1.72489,1.72489,0,0,0,.32986.03048,1.82777,1.82777,0,0,0,1.51327-.82487c.61781-.30947,1.10677-.53188,1.46441-.67563-.16313.21871-.34958.44459-.53422.649a.91839.91839,0,0,0,.744,1.53276c.04056-.00291.08358-.00537.12437-.00817A9.2129,9.2129,0,0,0,7.446,42.5723a1.83441,1.83441,0,0,0,1.46284,2.14408,1.85965,1.85965,0,0,0,.34241.03227,1.83469,1.83469,0,0,0,1.80167-1.49512c.00717-.03227.65972-3.252,4.81162-4.19314a1.83656,1.83656,0,1,0-.81389-3.58182,12.2284,12.2284,0,0,0-1.24458.35529c-.512.015-1.10072.04123-1.803.08213.62923-1.17781.23663-1.67618.07708-1.877-.49187-.62543-1.32951-.65512-2.93667.0009,2.15707-8.0079,7.89418-7.69048,8.60162-7.6181A1.85164,1.85164,0,0,0,19.77085,24.812c.002-.01782-.00583-.03373-.00426-.05143a.90843.90843,0,0,0-.06924-1.06364A10.16986,10.16986,0,0,0,16.829,21.456,9.47471,9.47471,0,0,1,19.14878,21.54566Z"/><path class="cls-3" d="M26.13854,6.56043a1.836,1.836,0,0,0-3.13186,1.38576,1.08176,1.08176,0,0,0,.0735.432l.01614.05379c.04482.2205.31372,1.9648-.65972,7.79647l-.043.242a11.01264,11.01264,0,0,0-9.72185-.39081,1.83577,1.83577,0,0,0,1.53277,3.33622c.1954-.08784,4.79549-2.09746,7.98112,1.617a1.834,1.834,0,0,0,1.39294.64179,1.85725,1.85725,0,0,0,.43025-.052,1.83793,1.83793,0,0,0,1.35528-1.35707s.31731-1.32123.69019-3.41152c.81568-4.88513.99675-8.29306.51451-9.61428A1.82054,1.82054,0,0,0,26.13854,6.56043Z"/><path class="cls-3" d="M50.07654,22.82027l-.42129-.02689a1.86416,1.86416,0,0,0-1.95046,1.71383,1.8381,1.8381,0,0,0,1.71383,1.95046l1.10587.0716a6.33073,6.33073,0,0,1,4.66686,5.51033,9.11956,9.11956,0,0,0-2.37018-.72728.91746.91746,0,0,0-.29759,1.81063,7.03929,7.03929,0,0,1,2.87326,1.12593,1.364,1.364,0,0,0,1.17109.80661c.02151.00179.043.00179.06633.00179A1.37556,1.37556,0,0,0,58.00747,33.745a9.31759,9.31759,0,0,0-3.37185-8.12992,1.82947,1.82947,0,0,0,.08224-1.33377c-1.25131-3.85253-3.42587-6.54876-6.46271-8.01161a14.10628,14.10628,0,0,0-8.61574-.91786,10.60124,10.60124,0,0,0-6.25834-7.7911,1.8258,1.8258,0,0,0-1.90609.38879,7.51055,7.51055,0,0,0-3.64592-2.90933.92153.92153,0,0,0-1.01467.33523.90151.90151,0,0,0-.00717,1.0577,14.391,14.391,0,0,1,.60235,2.96693A.91767.91767,0,0,0,29.231,9.1742c-.04482-.35675-.10577-.79955-.18286-1.25848a9.305,9.305,0,0,1,2.127,3.29667,1.81348,1.81348,0,0,0,.5889,2.32525,1.832,1.832,0,0,0,2.54744-.49658,2.74541,2.74541,0,0,0,.156-.25815,7.22113,7.22113,0,0,1,1.70486,4.87975,1.8403,1.8403,0,0,0,2.47394,1.72458c.04661-.01613,4.38316-1.57041,8.0367.20078A8.04622,8.04622,0,0,1,50.07654,22.82027Z"/><path class="cls-3" d="M54.397,45.12691l-2.71057-1.76044a1.84111,1.84111,0,0,0-1.57579-.20257A37.51234,37.51234,0,0,0,43.587,46.32623a1.83524,1.83524,0,1,0,1.85724,3.16592,40.65789,40.65789,0,0,1,5.025-2.53668l1.92716,1.25131A1.83632,1.83632,0,1,0,54.397,45.12691Z"/><path class="cls-3" d="M22.27349,52.17045a1.8324,1.8324,0,0,1-.69019-.13445c-4.31325-1.74968-4.281-7.51144-4.2774-7.757a1.83593,1.83593,0,0,1,3.67146.05378c0,.02689.03227,3.50833,1.98632,4.3007a1.83581,1.83581,0,0,1-.69019,3.537Z"/></svg>