<?xml version="1.0" encoding="UTF-8"?>
<svg width="32px" height="32px" viewBox="0 0 32 32" version="1.1" xmlns="http://www.w3.org/2000/svg" xmlns:xlink="http://www.w3.org/1999/xlink">
    <!-- Generator: Sketch 51.1 (57501) - http://www.bohemiancoding.com/sketch -->
    <title>icon/utility/ui-night/star-night</title>
    <desc>Created with Sketch.</desc>
    <defs>
        <path d="M16.8395801,2.64227699 L19.5256049,11.389958 C19.6423886,11.7398652 19.9921557,11.9148189 20.3430907,11.9148189 L29.1018671,11.9148189 C29.9777447,11.9148189 30.3280958,13.0811763 29.6268098,13.6060372 L22.5030049,18.8546458 C22.2110457,19.0879173 22.094846,19.4961424 22.2110457,19.8460496 L25.5983565,28.8270021 C25.83134,29.6434524 24.9554623,30.3432668 24.2547602,29.818406 L16.6060127,24.1032544 C16.3140535,23.8699829 15.9047267,23.8699829 15.5549596,24.1032544 L7.84723631,29.818406 C7.14595028,30.3432668 6.21226472,29.6434524 6.50422393,28.8270021 L9.77358321,19.8460496 C9.89095081,19.4961424 9.77358321,19.0879173 9.481624,18.8546458 L2.35840309,13.6060372 C1.65711706,13.0811763 2.06644387,11.9148189 2.88392967,11.9148189 L11.6427061,11.9148189 C12.051449,11.9148189 12.3434082,11.7981831 12.4601919,11.389958 L15.2046085,2.58395911 C15.4381759,1.76750889 16.6060127,1.82582676 16.8395801,2.64227699" id="path-1"></path>
    </defs>
    <g id="icon/utility/ui-night/star-night" stroke="none" stroke-width="1" fill="none" fill-rule="evenodd">
        <mask id="mask-2" fill="white">
            <use xlink:href="#path-1"></use>
        </mask>
        <g id="Fill-1"></g>
        <g id="colors/white/snow-ffffff" mask="url(#mask-2)" fill="#FFFFFF">
            <rect id="Brand-Color" x="0" y="0" width="32" height="32"></rect>
        </g>
    </g>
</svg>