<svg width="60" height="44" viewBox="0 0 60 44" fill="none" xmlns="http://www.w3.org/2000/svg">
<path d="M1.64453 3.98781C1.64453 2.63271 2.74306 1.53418 4.09816 1.53418H55.9025C57.2576 1.53418 58.3562 2.6327 58.3562 3.9878V40.2509C58.3562 41.606 57.2576 42.7045 55.9025 42.7045H4.09815C2.74305 42.7045 1.64453 41.606 1.64453 40.2509V3.98781Z" fill="white" stroke="#181818" stroke-width="2"/>
<rect x="2.11328" y="1.7002" width="55.776" height="9.54064" fill="#0D9DDA"/>
<path fill-rule="evenodd" clip-rule="evenodd" d="M4.09816 3.53418H55.9025C56.1531 3.53418 56.3562 3.73727 56.3562 3.9878V11.001H41H38H22H19L3.64453 11.001V3.98781C3.64453 3.73727 3.84763 3.53418 4.09816 3.53418ZM38 14.001L22 14.001L22 40.7045H38V14.001ZM41 40.7045H55.9025C56.1531 40.7045 56.3562 40.5014 56.3562 40.2509V14.001L41 14.001V40.7045ZM3.64453 14.001L19 14.001L19 40.7045H4.09815C3.84763 40.7045 3.64453 40.5014 3.64453 40.2509V14.001ZM0.644531 3.98781C0.644531 2.08042 2.19077 0.53418 4.09816 0.53418H55.9025C57.8099 0.53418 59.3562 2.08042 59.3562 3.9878V40.2509C59.3562 42.1582 57.8099 43.7045 55.9025 43.7045H4.09815C2.19077 43.7045 0.644531 42.1583 0.644531 40.2509V3.98781ZM16 19.001C16 19.5533 15.5523 20.001 15 20.001H8C7.44772 20.001 7 19.5533 7 19.001V18.001C7 17.4487 7.44772 17.001 8 17.001H15C15.5523 17.001 16 17.4487 16 18.001V19.001ZM34 19.001C34 19.5533 33.5523 20.001 33 20.001H26C25.4477 20.001 25 19.5533 25 19.001V18.001C25 17.4487 25.4477 17.001 26 17.001H33C33.5523 17.001 34 17.4487 34 18.001V19.001ZM52 20.001C52.5523 20.001 53 19.5533 53 19.001V18.001C53 17.4487 52.5523 17.001 52 17.001H45C44.4477 17.001 44 17.4487 44 18.001V19.001C44 19.5533 44.4477 20.001 45 20.001H52ZM16 25.001C16 25.5533 15.5523 26.001 15 26.001H8C7.44772 26.001 7 25.5533 7 25.001V24.001C7 23.4487 7.44772 23.001 8 23.001H15C15.5523 23.001 16 23.4487 16 24.001V25.001ZM33 26.001C33.5523 26.001 34 25.5533 34 25.001V24.001C34 23.4487 33.5523 23.001 33 23.001H26C25.4477 23.001 25 23.4487 25 24.001V25.001C25 25.5533 25.4477 26.001 26 26.001H33ZM53 25.001C53 25.5533 52.5523 26.001 52 26.001H45C44.4477 26.001 44 25.5533 44 25.001V24.001C44 23.4487 44.4477 23.001 45 23.001H52C52.5523 23.001 53 23.4487 53 24.001V25.001ZM15 32.001C15.5523 32.001 16 31.5533 16 31.001V30.001C16 29.4487 15.5523 29.001 15 29.001H8C7.44772 29.001 7 29.4487 7 30.001V31.001C7 31.5533 7.44772 32.001 8 32.001H15ZM34 31.001C34 31.5533 33.5523 32.001 33 32.001H26C25.4477 32.001 25 31.5533 25 31.001V30.001C25 29.4487 25.4477 29.001 26 29.001H33C33.5523 29.001 34 29.4487 34 30.001V31.001ZM15 38.001C15.5523 38.001 16 37.5533 16 37.001V36.001C16 35.4487 15.5523 35.001 15 35.001H8C7.44772 35.001 7 35.4487 7 36.001V37.001C7 37.5533 7.44772 38.001 8 38.001H15Z" fill="#032D60"/>
</svg>
