<svg xmlns="http://www.w3.org/2000/svg" viewBox="0 0 64 64"><defs><style>.cls-1{fill:none;}.cls-2{fill:#032e61;}</style></defs><title>trailhead-day2</title><g id="invisi-border"><rect class="cls-1" width="64" height="64"/></g><g id="icon"><path class="cls-2" d="M32.79,4.16a2,2,0,0,0-1.58,0A44.75,44.75,0,0,0,4,46v4a2,2,0,0,0,.82,1.62A50,50,0,0,0,32,60h1l.14,0a50,50,0,0,0,26-8.36A2,2,0,0,0,60,50V46A44.75,44.75,0,0,0,32.79,4.16Zm-.79,4A40.71,40.71,0,0,1,55.47,39H50.72s0-.09-.08-.14l-9-13a2,2,0,0,0-3.29,0L36,29.21l-6.39-9.34a2,2,0,0,0-3.3,0l-13,19s0,.09-.07.13H8.53A40.71,40.71,0,0,1,32,8.19ZM29.28,39H18.11L28,24.54l5.6,8.19-4.25,6.13S29.31,39,29.28,39Zm4.85,0L40,30.51,45.88,39ZM8,46c0-1,0-2,.1-3H28.79a5.23,5.23,0,0,0,2.3,7.56l1.83.81a1.23,1.23,0,0,1,.57,1.74L31.84,56A47,47,0,0,1,8,48.93Zm48,2.93a47.89,47.89,0,0,1-19.4,6.8L37,55.1a5.23,5.23,0,0,0-2.42-7.38l-1.83-.81A1.23,1.23,0,0,1,32.27,45l1.66-2h22c.06,1,.1,2,.1,3Z"/></g></svg>