<svg xmlns="http://www.w3.org/2000/svg" viewBox="0 0 64 64"><defs><style>.cls-1{fill:none;}.cls-2{fill:#032e61;}.cls-3{fill:#fff;}</style></defs><title>trailhead-day3</title><g id="invisi-border"><rect class="cls-1" width="64" height="64"/></g><g id="icon"><circle class="cls-2" cx="32" cy="32" r="28"/><path class="cls-3" d="M32.43,15.79a1.09,1.09,0,0,0-.86,0A24.46,24.46,0,0,0,16.7,38.65v2.19a1.09,1.09,0,0,0,.45.88A27.3,27.3,0,0,0,32,46.3h.62a27.35,27.35,0,0,0,14.23-4.57,1.09,1.09,0,0,0,.45-.88V38.65A24.46,24.46,0,0,0,32.43,15.79ZM32,18A22.25,22.25,0,0,1,44.82,34.83H42.23l0-.08-4.92-7.1a1.09,1.09,0,0,0-1.8,0l-1.27,1.83-3.49-5.1a1.09,1.09,0,0,0-1.8,0l-7.1,10.38,0,.07H19.18A22.25,22.25,0,0,1,32,18ZM30.51,34.83H24.41l5.41-7.9,3.06,4.47-2.32,3.35Zm2.65,0,3.21-4.64,3.21,4.64ZM18.88,38.65c0-.56,0-1.1.06-1.64H30.25a2.86,2.86,0,0,0,1.26,4.13l1,.44a.67.67,0,0,1,.31.95l-.9,1.58a25.7,25.7,0,0,1-13-3.86Zm26.23,1.6A26.17,26.17,0,0,1,34.51,44l.2-.35a2.86,2.86,0,0,0-1.32-4l-1-.44a.67.67,0,0,1-.24-1L33.06,37h12c0,.54.06,1.08.06,1.64Z"/></g></svg>