<svg xmlns="http://www.w3.org/2000/svg" viewBox="0 0 64 64"><defs><style>.cls-1{fill:none;}.cls-2{fill:#4b2048;}</style></defs><title>transportation-day2</title><g id="invisi-border"><rect class="cls-1" width="64" height="64"/></g><g id="icon"><path class="cls-2" d="M33,60H26a2,2,0,0,1-1.95-2.46l5-21a2,2,0,0,1,3.89.93L28.53,56h3.38L44.32,36.91a2,2,0,1,1,3.35,2.18l-13,20A2,2,0,0,1,33,60Z"/><path class="cls-2" d="M16,48H8a2,2,0,0,1-1.9-2.63l3-9a2,2,0,0,1,3.79,1.27L10.77,44h4.15l5.41-8.11a2,2,0,1,1,3.33,2.22l-6,9A2,2,0,0,1,16,48Z"/><path class="cls-2" d="M52,40,9.9,38h0a6,6,0,0,1,0-12l42-2h0A8,8,0,1,1,52,40Zm0-12L10.1,30H10a2,2,0,0,0,0,4l42.1,2a4,4,0,0,0-.1-8Z"/><path class="cls-2" d="M31,29a2,2,0,0,1-1.94-1.54l-5-21A2,2,0,0,1,26,4h7a2,2,0,0,1,1.68.91l13,20a2,2,0,1,1-3.35,2.18L31.91,8H28.53l4.41,18.54A2,2,0,0,1,31,29Z"/><path class="cls-2" d="M11,29a2,2,0,0,1-1.9-1.37l-3-9A2,2,0,0,1,8,16h8a2,2,0,0,1,1.66.89l6,9a2,2,0,0,1-3.33,2.22L14.93,20H10.77l2.12,6.37A2,2,0,0,1,11,29Z"/></g></svg>