<svg xmlns="http://www.w3.org/2000/svg" viewBox="0 0 64 64"><defs><style>.cls-1{fill:none;}.cls-2{fill:#4c2248;}.cls-3{fill:#fff;}</style></defs><title>transportation-day3</title><g id="invisi-border"><rect class="cls-1" width="64" height="64"/></g><g id="icon"><circle class="cls-2" cx="32" cy="32" r="28"/><path class="cls-3" d="M42.89,27.63h0l-2.56.12L33.46,17.18a1.09,1.09,0,0,0-.92-.5H28.72A1.1,1.1,0,0,0,27.65,18l2.43,10.2-2.83.13-3.09-4.63a1.1,1.1,0,0,0-.91-.49H18.88a1.09,1.09,0,0,0-1,1.44l1.37,4.12a3.28,3.28,0,0,0,0,6.38l-1.37,4.12a1.09,1.09,0,0,0,1,1.44h4.38a1.1,1.1,0,0,0,.91-.49l3.09-4.63,2.83.13L27.65,46a1.1,1.1,0,0,0,1.06,1.35h3.83a1.09,1.09,0,0,0,.92-.5l6.87-10.56,2.61.12a4.37,4.37,0,1,0,0-8.75ZM30.1,18.88H32l5.84,9-5.49.26Zm-7.44,6.56,2,3.05-3.24.15-1.07-3.21Zm0,13.13H20.39l1.07-3.21,3.24.15ZM32,45.13H30.1l2.2-9.26,5.49.26ZM43,34.19,20,33.09A1.09,1.09,0,0,1,18.88,32,1.12,1.12,0,0,1,20,30.91l22.92-1.09A2.19,2.19,0,0,1,43,34.19Z"/></g></svg>