<svg xmlns="http://www.w3.org/2000/svg" viewBox="0 0 64 64"><defs><style>.cls-1{fill:none;}.cls-2{fill:#ccc7c3;}.cls-3{fill:#fff;}</style></defs><title>utility-pricing-check</title><g id="invisi-border"><rect class="cls-1" width="64" height="64"/></g><g id="icon"><circle id="Oval" class="cls-2" cx="32" cy="32" r="28"/><path class="cls-3" d="M44.6,21.94a1.1,1.1,0,0,0,0-1.6l-1.39-1.59a1.36,1.36,0,0,0-1.54,0l-9.26,9.72a.73.73,0,0,1-1.08,0l-9.26-9.72a1,1,0,0,0-1.55,0L19,20.34a1.23,1.23,0,0,0,0,1.44l9.41,9.72a.61.61,0,0,1,0,1L19,42.18a1.1,1.1,0,0,0,0,1.6l1.54,1.59a1.13,1.13,0,0,0,1.39,0l9.42-9.72a.56.56,0,0,1,.92,0l9.42,9.72a1.13,1.13,0,0,0,1.39,0l1.54-1.59a1.1,1.1,0,0,0,0-1.6l-9.26-9.56a.79.79,0,0,1,0-1.12Z"/></g></svg>