<svg xmlns="http://www.w3.org/2000/svg" viewBox="0 0 64 64"><defs><style>.cls-1{fill:none;}.cls-2{fill:#d4e7cd;}.cls-3{fill:#278806;}</style></defs><title>utility-pricing-not-available</title><g id="invisi-border"><rect class="cls-1" width="64" height="64"/></g><g id="icon"><circle id="Oval" class="cls-2" cx="32" cy="32" r="28"/><g id="icon-check"><g id="Path"><path class="cls-3" d="M26.55,44.7,14.72,32.82a1.7,1.7,0,0,1,0-2.4l1.58-1.58a1.7,1.7,0,0,1,2.4,0l8.9,9a.2.2,0,0,0,.25,0L45.3,20.24a1.72,1.72,0,0,1,2.4,0l1.58,1.58a1.71,1.71,0,0,1,0,2.4L29,44.68A1.59,1.59,0,0,1,26.55,44.7Z"/></g></g></g></svg>