<svg xmlns="http://www.w3.org/2000/svg" viewBox="0 0 32 32"><defs><style>.cls-1{fill:none;}.cls-2{fill:#fff;}.cls-3{fill:#59575c;}</style></defs><title>social-icon-we-chat-day</title><g id="transparent_border" data-name="transparent border"><rect class="cls-1" width="32" height="32"/></g><g id="icon-bg"><rect class="cls-2" x="3.4" y="3.4" width="25.2" height="25.2" rx="3.6"/></g><g id="icons"><path class="cls-3" d="M10.12,10.25a1.1,1.1,0,1,0,1.09,1.1A1.1,1.1,0,0,0,10.12,10.25Z"/><path class="cls-3" d="M15.59,12.44a1.1,1.1,0,1,0-1.09-1.09A1.09,1.09,0,0,0,15.59,12.44Z"/><path class="cls-3" d="M18.23,16a.92.92,0,1,0,.92.92A.92.92,0,0,0,18.23,16Z"/><path class="cls-3" d="M22.79,16a.92.92,0,1,0,.92.92A.92.92,0,0,0,22.79,16Z"/><path class="cls-3" d="M26,2H6A4,4,0,0,0,2,6V26a4,4,0,0,0,4,4H26a4,4,0,0,0,4-4V6A4,4,0,0,0,26,2ZM12.85,20.38A9.68,9.68,0,0,1,10.18,20a1,1,0,0,0-.25,0,.82.82,0,0,0-.43.12l-1.8,1a.3.3,0,0,1-.16.05.27.27,0,0,1-.27-.27,1.18,1.18,0,0,1,0-.2s.24-.87.37-1.38a.57.57,0,0,0,0-.18.54.54,0,0,0-.23-.44,6.44,6.44,0,0,1-2.83-5.17c0-3.78,3.67-6.84,8.2-6.84,4.1,0,7.49,2.5,8.11,5.76h-.45c-4.13,0-7.48,2.8-7.48,6.24a5.57,5.57,0,0,0,.27,1.68ZM25,23a.44.44,0,0,0-.19.37.59.59,0,0,0,0,.14c.12.43.3,1.12.31,1.15a1,1,0,0,1,0,.17.23.23,0,0,1-.23.23.28.28,0,0,1-.13,0l-1.5-.87a.75.75,0,0,0-.36-.1.64.64,0,0,0-.2,0,8.19,8.19,0,0,1-2.24.31c-3.77,0-6.84-2.55-6.84-5.7S16.74,13,20.51,13s6.84,2.55,6.84,5.7A5.37,5.37,0,0,1,25,23Z"/></g></svg>