<svg xmlns="http://www.w3.org/2000/svg" viewBox="0 0 32 32"><defs><style>.cls-1{fill:none;}.cls-2{fill:#fff;}.cls-3{fill:#59575c;}</style></defs><title>social-icon-xing-day</title><g id="transparent_border" data-name="transparent border"><rect class="cls-1" width="32" height="32"/></g><g id="icon-bg"><rect class="cls-2" x="3.4" y="3.4" width="25.2" height="25.2" rx="3.6"/></g><g id="icons"><path class="cls-3" d="M26,2H6A4,4,0,0,0,2,6V26a4,4,0,0,0,4,4H26a4,4,0,0,0,4-4V6A4,4,0,0,0,26,2ZM10.47,19.6H8c-.5,0-.7-.3-.5-.8,1-1.7,2-3.4,2.9-5.1a.19.19,0,0,0,0-.3l-1.8-3c0-.1-.1-.1-.1-.2-.2-.3,0-.6.4-.6h2.9c.4,0,.7.1.8.4a7.46,7.46,0,0,1,.7,1.2,25.29,25.29,0,0,0,1.3,2.2.19.19,0,0,1,0,.3c-1,1.8-2,3.5-3.1,5.3A1,1,0,0,1,10.47,19.6Zm14-12.8c-2.1,3.7-4.3,7.3-6.4,11-.1.2-.1.3,0,.4,1.3,2.4,2.7,4.7,4,7.1a.37.37,0,0,1,.1.3.52.52,0,0,1-.2.4H19c-.5,0-.7-.2-1-.6-.5-.8-.9-1.6-1.4-2.4-.9-1.6-1.8-3.3-2.8-4.9a.19.19,0,0,1,0-.3c2.2-3.7,4.3-7.4,6.5-11.1.1-.1.1-.2.2-.3a1,1,0,0,1,.7-.4l2.9.1C24.57,6.1,24.77,6.4,24.47,6.8Z"/></g></svg>